0
SECTION
2
HEADER
9
$INSUNITS
70
4
9
$ACADVER
1
AC1014
9
$HANDSEED
5
FFFF
0
ENDSEC
0
SECTION
2
TABLES
0
TABLE
2
VPORT
5
8
100
AcDbSymbolTable
0
ENDTAB
0
TABLE
2
LTYPE
5
5
100
AcDbSymbolTable
0
LTYPE
5
14
100
AcDbSymbolTableRecord
100
AcDbLinetypeTableRecord
2
BYBLOCK
70
0
0
LTYPE
5
15
100
AcDbSymbolTableRecord
100
AcDbLinetypeTableRecord
2
BYLAYER
70
0
0
LTYPE
5
16
100
AcDbSymbolTableRecord
100
AcDbLinetypeTableRecord
2
DASHED
70
0
3
Dashed __ __ __ __ __ __ __ __ __ __ __ __ __ _
72
65
73
2
40
0.75
49
0.5
74
0
49
-0.25
74
0
0
ENDTAB
0
TABLE
2
LAYER
5
2
100
AcDbSymbolTable
70
2
0
LAYER
5
50
100
AcDbSymbolTableRecord
100
AcDbLayerTableRecord
2
0
70
0
62
7
6
CONTINUOUS
0
ENDTAB
0
TABLE
2
STYLE
5
3
100
AcDbSymbolTable
70
1
0
STYLE
5
11
100
AcDbSymbolTableRecord
100
AcDbTextStyleTableRecord
2
STANDARD
70
0
0
ENDTAB
0
TABLE
2
VIEW
5
6
100
AcDbSymbolTable
70
0
0
ENDTAB
0
TABLE
2
UCS
5
7
100
AcDbSymbolTable
70
0
0
ENDTAB
0
TABLE
2
APPID
5
9
100
AcDbSymbolTable
70
2
0
APPID
5
12
100
AcDbSymbolTableRecord
100
AcDbRegAppTableRecord
2
ACAD
70
0
0
ENDTAB
0
TABLE
2
DIMSTYLE
5
A
100
AcDbSymbolTable
70
1
0
ENDTAB
0
TABLE
2
BLOCK_RECORD
5
1
100
AcDbSymbolTable
70
1
0
BLOCK_RECORD
5
1F
100
AcDbSymbolTableRecord
100
AcDbBlockTableRecord
2
*MODEL_SPACE
0
BLOCK_RECORD
5
1B
100
AcDbSymbolTableRecord
100
AcDbBlockTableRecord
2
*PAPER_SPACE
0
ENDTAB
0
ENDSEC
0
SECTION
2
BLOCKS
0
BLOCK
5
20
100
AcDbEntity
100
AcDbBlockBegin
2
*MODEL_SPACE
0
ENDBLK
5
21
100
AcDbEntity
100
AcDbBlockEnd
0
BLOCK
5
1C
100
AcDbEntity
100
AcDbBlockBegin
2
*PAPER_SPACE
0
ENDBLK
5
1D
100
AcDbEntity
100
AcDbBlockEnd
0
ENDSEC
0
SECTION
2
ENTITIES
0
LINE
5
100
100
AcDbEntity
8
0
100
AcDbLine
10
11.000000000000032
20
0.9999999999999758
30
0
11
9.0000000000000746
21
-2.4641016151375172
31
0
6
DASHED
0
LINE
5
101
100
AcDbEntity
8
0
100
AcDbLine
10
11.000000000000032
20
8.8817841970012523e-15
30
0
11
12.499999999999982
21
-2.5980762113530975
31
0
6
DASHED
0
LINE
5
102
100
AcDbEntity
8
0
100
AcDbLine
10
9.0000000000000391
20
-49.964466094067284
30
0
11
9.0000000000000746
21
-2.4641016151375172
31
0
6
DASHED
0
ARC
5
103
100
AcDbEntity
8
0
100
AcDbCircle
10
15
20
-49.964466094067248
30
0
40
1.9999999999999751
210
0
220
0
230
1
100
AcDbArc
50
180
51
225.00000000000065
6
DASHED
0
LINE
5
104
100
AcDbEntity
8
0
100
AcDbLine
10
12.500000000000018
20
-51
30
0
11
12.499999999999982
21
-2.5980762113530975
31
0
6
DASHED
0
LINE
5
105
100
AcDbEntity
8
0
100
AcDbLine
10
9.5000000000000462
20
-51.000000000000007
30
0
11
9.5000000000000817
21
-2.5980762113530798
31
0
6
DASHED
0
ARC
5
106
100
AcDbEntity
8
0
100
AcDbCircle
10
7.0000000000000639
20
-49.964466094067284
30
0
40
1.9999999999999774
210
-0
220
0
230
1
100
AcDbArc
50
-45.000000000000199
51
0
6
DASHED
0
LINE
5
107
100
AcDbEntity
8
0
100
AcDbLine
10
6.5000000000000391
20
-58.999999999999986
30
0
11
6.5000000000000391
21
-53.999999999999986
31
0
6
DASHED
0
LINE
5
108
100
AcDbEntity
8
0
100
AcDbLine
10
11.000000000000032
20
0.9999999999999758
30
0
11
12.999999999999989
21
-2.464101615137535
31
0
6
DASHED
0
LINE
5
109
100
AcDbEntity
8
0
100
AcDbLine
10
11.000000000000032
20
8.8817841970012523e-15
30
0
11
9.5000000000000817
21
-2.5980762113530798
31
0
6
DASHED
0
LINE
5
110
100
AcDbEntity
8
0
100
AcDbLine
10
13.000000000000025
20
-49.964466094067234
30
0
11
12.999999999999989
21
-2.464101615137535
31
0
6
DASHED
0
LINE
5
111
100
AcDbEntity
8
0
100
AcDbLine
10
11.000000000000032
20
-59.499999999999986
30
0
11
16.00000000000005
21
-59.499999999999986
31
0
6
DASHED
0
LINE
5
112
100
AcDbEntity
8
0
100
AcDbLine
10
16.00000000000005
20
-53.792893218813447
30
0
11
13.585786437626926
21
-51.378679656440355
31
0
6
DASHED
0
LINE
5
113
100
AcDbEntity
8
0
100
AcDbLine
10
6.5000000000000391
20
-53.999999999999986
30
0
11
9.5000000000000462
21
-51.000000000000007
31
0
6
DASHED
0
LINE
5
114
100
AcDbEntity
8
0
100
AcDbLine
10
15.500000000000043
20
-53.999999999999986
30
0
11
12.500000000000018
21
-51
31
0
6
DASHED
0
CIRCLE
5
115
100
AcDbEntity
8
0
100
AcDbCircle
10
11.000000000000032
20
-55.499999999999986
30
0
40
1.25
210
0
220
0
230
1
0
LINE
5
116
100
AcDbEntity
8
0
100
AcDbLine
10
16.00000000000005
20
-59.499999999999986
30
0
11
16.00000000000005
21
-53.792893218813447
31
0
6
DASHED
0
LINE
5
117
100
AcDbEntity
8
0
100
AcDbLine
10
15.500000000000043
20
-58.999999999999986
30
0
11
15.500000000000043
21
-53.999999999999986
31
0
6
DASHED
0
LINE
5
118
100
AcDbEntity
8
0
100
AcDbLine
10
6.000000000000032
20
-53.792893218813447
30
0
11
8.4142135623731384
21
-51.378679656440369
31
0
6
DASHED
0
LINE
5
119
100
AcDbEntity
8
0
100
AcDbLine
10
11.000000000000032
20
-58.999999999999986
30
0
11
6.5000000000000391
21
-58.999999999999986
31
0
6
DASHED
0
LINE
5
120
100
AcDbEntity
8
0
100
AcDbLine
10
6.000000000000032
20
-59.499999999999986
30
0
11
6.000000000000032
21
-53.792893218813447
31
0
6
DASHED
0
LINE
5
121
100
AcDbEntity
8
0
100
AcDbLine
10
11.000000000000032
20
-59.499999999999986
30
0
11
6.000000000000032
21
-59.499999999999986
31
0
6
DASHED
0
LINE
5
122
100
AcDbEntity
8
0
100
AcDbLine
10
11.000000000000032
20
-58.999999999999986
30
0
11
15.500000000000043
21
-58.999999999999986
31
0
6
DASHED
0
LWPOLYLINE
5
123
100
AcDbEntity
8
0
100
AcDbPolyline
90
12
70
1
43
0.0
10
11.000000000000034
20
1.9999999999999369
10
13.499999999999989
20
-2.3301270189219636
10
13.500000000000025
20
-49.964466094067234
42
0.19891236737966492
10
13.939339828220213
20
-51.025126265847064
10
16.50000000000005
20
-53.585786437626901
10
16.50000000000005
20
-59.999999999999986
10
11.000000000000032
20
-59.999999999999986
10
5.500000000000032
20
-59.999999999999986
10
5.5000000000000329
20
-53.585786437626901
10
8.0606601717798672
20
-51.025126265847092
42
0.19891236737965892
10
8.5000000000000409
20
-49.964466094067284
10
8.5000000000000728
20
-2.3301270189219547
0
ENDSEC
0
SECTION
2
OBJECTS
0
DICTIONARY
5
C
100
AcDbDictionary
3
ACAD_GROUP
350
D
3
ACAD_MLINESTYLE
350
17
0
DICTIONARY
5
D
100
AcDbDictionary
0
DICTIONARY
5
1A
330
C
100
AcDbDictionary
0
DICTIONARY
5
17
100
AcDbDictionary
0
ENDSEC
0
EOF
