ISO-10303-21;
HEADER;
/* Generated by software containing ST-Developer
 * from STEP Tools, Inc. (www.steptools.com) 
 */

FILE_DESCRIPTION(
/* description */ (''),
/* implementation_level */ '2;1');

FILE_NAME(
/* name */ 'OperatorHandle.step',
/* time_stamp */ '2026-05-29T17:30:11+02:00',
/* author */ (''),
/* organization */ (''),
/* preprocessor_version */ 'ST-DEVELOPER v20.1',
/* originating_system */ 'Autodesk Translation Framework v15.8.0.0',
/* authorisation */ '');

FILE_SCHEMA (('AUTOMOTIVE_DESIGN { 1 0 10303 214 3 1 1 }'));
ENDSEC;

DATA;
#10=MECHANICAL_DESIGN_GEOMETRIC_PRESENTATION_REPRESENTATION('',(#17),#1763);
#11=ITEM_DEFINED_TRANSFORMATION($,$,#1099,#1171);
#12=(
REPRESENTATION_RELATIONSHIP($,$,#1774,#1773)
REPRESENTATION_RELATIONSHIP_WITH_TRANSFORMATION(#11)
SHAPE_REPRESENTATION_RELATIONSHIP()
);
#13=CONTEXT_DEPENDENT_SHAPE_REPRESENTATION(#12,#1772);
#14=NEXT_ASSEMBLY_USAGE_OCCURRENCE('shell:1','shell:1','shell:1',#1776,
#1777,'shell:1');
#15=SHAPE_REPRESENTATION_RELATIONSHIP('SRR','None',#1774,#16);
#16=ADVANCED_BREP_SHAPE_REPRESENTATION('',(#18),#1762);
#17=STYLED_ITEM('',(#1790),#18);
#18=MANIFOLD_SOLID_BREP('Body5',#1085);
#19=CYLINDRICAL_SURFACE('',#1116,15.);
#20=CYLINDRICAL_SURFACE('',#1120,15.);
#21=CYLINDRICAL_SURFACE('',#1136,2.25);
#22=CYLINDRICAL_SURFACE('',#1138,2.25);
#23=CYLINDRICAL_SURFACE('',#1140,2.25);
#24=CYLINDRICAL_SURFACE('',#1142,2.25);
#25=CYLINDRICAL_SURFACE('',#1151,10.);
#26=CYLINDRICAL_SURFACE('',#1164,5.3);
#27=FACE_BOUND('',#111,.T.);
#28=FACE_BOUND('',#112,.T.);
#29=FACE_BOUND('',#113,.T.);
#30=FACE_BOUND('',#114,.T.);
#31=FACE_BOUND('',#115,.T.);
#32=FACE_BOUND('',#116,.T.);
#33=FACE_BOUND('',#167,.T.);
#34=FACE_BOUND('',#168,.T.);
#35=FACE_BOUND('',#169,.T.);
#36=FACE_BOUND('',#170,.T.);
#37=FACE_BOUND('',#171,.T.);
#38=CIRCLE('',#1102,10.);
#39=CIRCLE('',#1103,5.3);
#40=CIRCLE('',#1104,2.25);
#41=CIRCLE('',#1105,2.25);
#42=CIRCLE('',#1106,2.25);
#43=CIRCLE('',#1107,2.25);
#44=CIRCLE('',#1115,15.);
#45=CIRCLE('',#1117,15.);
#46=CIRCLE('',#1119,15.);
#47=CIRCLE('',#1121,15.);
#48=CIRCLE('',#1122,15.);
#49=CIRCLE('',#1123,15.);
#50=CIRCLE('',#1124,15.);
#51=CIRCLE('',#1137,2.25);
#52=CIRCLE('',#1139,2.25);
#53=CIRCLE('',#1141,2.25);
#54=CIRCLE('',#1143,2.25);
#55=CIRCLE('',#1152,10.);
#56=CIRCLE('',#1165,5.3);
#57=FACE_OUTER_BOUND('',#109,.T.);
#58=FACE_OUTER_BOUND('',#110,.T.);
#59=FACE_OUTER_BOUND('',#117,.T.);
#60=FACE_OUTER_BOUND('',#118,.T.);
#61=FACE_OUTER_BOUND('',#119,.T.);
#62=FACE_OUTER_BOUND('',#120,.T.);
#63=FACE_OUTER_BOUND('',#121,.T.);
#64=FACE_OUTER_BOUND('',#122,.T.);
#65=FACE_OUTER_BOUND('',#123,.T.);
#66=FACE_OUTER_BOUND('',#124,.T.);
#67=FACE_OUTER_BOUND('',#125,.T.);
#68=FACE_OUTER_BOUND('',#126,.T.);
#69=FACE_OUTER_BOUND('',#127,.T.);
#70=FACE_OUTER_BOUND('',#128,.T.);
#71=FACE_OUTER_BOUND('',#129,.T.);
#72=FACE_OUTER_BOUND('',#130,.T.);
#73=FACE_OUTER_BOUND('',#131,.T.);
#74=FACE_OUTER_BOUND('',#132,.T.);
#75=FACE_OUTER_BOUND('',#133,.T.);
#76=FACE_OUTER_BOUND('',#134,.T.);
#77=FACE_OUTER_BOUND('',#135,.T.);
#78=FACE_OUTER_BOUND('',#136,.T.);
#79=FACE_OUTER_BOUND('',#137,.T.);
#80=FACE_OUTER_BOUND('',#138,.T.);
#81=FACE_OUTER_BOUND('',#139,.T.);
#82=FACE_OUTER_BOUND('',#140,.T.);
#83=FACE_OUTER_BOUND('',#141,.T.);
#84=FACE_OUTER_BOUND('',#142,.T.);
#85=FACE_OUTER_BOUND('',#143,.T.);
#86=FACE_OUTER_BOUND('',#144,.T.);
#87=FACE_OUTER_BOUND('',#145,.T.);
#88=FACE_OUTER_BOUND('',#146,.T.);
#89=FACE_OUTER_BOUND('',#147,.T.);
#90=FACE_OUTER_BOUND('',#148,.T.);
#91=FACE_OUTER_BOUND('',#149,.T.);
#92=FACE_OUTER_BOUND('',#150,.T.);
#93=FACE_OUTER_BOUND('',#151,.T.);
#94=FACE_OUTER_BOUND('',#152,.T.);
#95=FACE_OUTER_BOUND('',#153,.T.);
#96=FACE_OUTER_BOUND('',#154,.T.);
#97=FACE_OUTER_BOUND('',#155,.T.);
#98=FACE_OUTER_BOUND('',#156,.T.);
#99=FACE_OUTER_BOUND('',#157,.T.);
#100=FACE_OUTER_BOUND('',#158,.T.);
#101=FACE_OUTER_BOUND('',#159,.T.);
#102=FACE_OUTER_BOUND('',#160,.T.);
#103=FACE_OUTER_BOUND('',#161,.T.);
#104=FACE_OUTER_BOUND('',#162,.T.);
#105=FACE_OUTER_BOUND('',#163,.T.);
#106=FACE_OUTER_BOUND('',#164,.T.);
#107=FACE_OUTER_BOUND('',#165,.T.);
#108=FACE_OUTER_BOUND('',#166,.T.);
#109=EDGE_LOOP('',(#687,#688,#689,#690));
#110=EDGE_LOOP('',(#691,#692,#693,#694,#695,#696,#697,#698,#699,#700,#701));
#111=EDGE_LOOP('',(#702,#703,#704,#705,#706,#707,#708,#709,#710,#711,#712,
#713,#714,#715,#716));
#112=EDGE_LOOP('',(#717));
#113=EDGE_LOOP('',(#718));
#114=EDGE_LOOP('',(#719));
#115=EDGE_LOOP('',(#720));
#116=EDGE_LOOP('',(#721,#722,#723,#724));
#117=EDGE_LOOP('',(#725,#726,#727,#728));
#118=EDGE_LOOP('',(#729,#730,#731,#732));
#119=EDGE_LOOP('',(#733,#734,#735,#736));
#120=EDGE_LOOP('',(#737,#738,#739,#740));
#121=EDGE_LOOP('',(#741,#742,#743,#744));
#122=EDGE_LOOP('',(#745,#746,#747,#748));
#123=EDGE_LOOP('',(#749,#750,#751,#752,#753,#754));
#124=EDGE_LOOP('',(#755,#756,#757,#758));
#125=EDGE_LOOP('',(#759,#760,#761,#762,#763,#764,#765,#766,#767,#768));
#126=EDGE_LOOP('',(#769,#770,#771,#772,#773,#774,#775,#776,#777,#778));
#127=EDGE_LOOP('',(#779,#780,#781,#782,#783,#784,#785));
#128=EDGE_LOOP('',(#786,#787,#788,#789,#790,#791,#792));
#129=EDGE_LOOP('',(#793,#794,#795,#796));
#130=EDGE_LOOP('',(#797,#798,#799,#800,#801,#802));
#131=EDGE_LOOP('',(#803,#804,#805,#806,#807,#808));
#132=EDGE_LOOP('',(#809,#810,#811,#812,#813,#814));
#133=EDGE_LOOP('',(#815,#816,#817,#818,#819,#820));
#134=EDGE_LOOP('',(#821,#822,#823,#824,#825,#826));
#135=EDGE_LOOP('',(#827,#828,#829,#830,#831,#832));
#136=EDGE_LOOP('',(#833,#834,#835,#836));
#137=EDGE_LOOP('',(#837,#838,#839,#840));
#138=EDGE_LOOP('',(#841,#842,#843,#844));
#139=EDGE_LOOP('',(#845,#846,#847,#848));
#140=EDGE_LOOP('',(#849,#850,#851,#852));
#141=EDGE_LOOP('',(#853,#854,#855,#856));
#142=EDGE_LOOP('',(#857,#858,#859,#860));
#143=EDGE_LOOP('',(#861,#862,#863,#864));
#144=EDGE_LOOP('',(#865,#866,#867,#868,#869,#870));
#145=EDGE_LOOP('',(#871,#872,#873,#874));
#146=EDGE_LOOP('',(#875,#876,#877,#878,#879,#880,#881,#882));
#147=EDGE_LOOP('',(#883,#884,#885,#886));
#148=EDGE_LOOP('',(#887,#888,#889,#890));
#149=EDGE_LOOP('',(#891,#892,#893,#894));
#150=EDGE_LOOP('',(#895,#896,#897,#898));
#151=EDGE_LOOP('',(#899,#900,#901,#902));
#152=EDGE_LOOP('',(#903,#904,#905,#906));
#153=EDGE_LOOP('',(#907,#908,#909,#910));
#154=EDGE_LOOP('',(#911,#912,#913,#914));
#155=EDGE_LOOP('',(#915,#916,#917,#918));
#156=EDGE_LOOP('',(#919,#920,#921,#922));
#157=EDGE_LOOP('',(#923,#924,#925,#926));
#158=EDGE_LOOP('',(#927,#928,#929,#930));
#159=EDGE_LOOP('',(#931,#932,#933,#934));
#160=EDGE_LOOP('',(#935,#936,#937,#938));
#161=EDGE_LOOP('',(#939,#940,#941,#942));
#162=EDGE_LOOP('',(#943,#944,#945,#946));
#163=EDGE_LOOP('',(#947,#948,#949,#950));
#164=EDGE_LOOP('',(#951,#952,#953,#954));
#165=EDGE_LOOP('',(#955,#956,#957,#958));
#166=EDGE_LOOP('',(#959,#960,#961,#962,#963,#964,#965,#966,#967,#968,#969));
#167=EDGE_LOOP('',(#970));
#168=EDGE_LOOP('',(#971));
#169=EDGE_LOOP('',(#972));
#170=EDGE_LOOP('',(#973));
#171=EDGE_LOOP('',(#974,#975,#976,#977,#978,#979,#980,#981,#982,#983,#984,
#985,#986,#987,#988));
#172=LINE('',#1457,#304);
#173=LINE('',#1459,#305);
#174=LINE('',#1461,#306);
#175=LINE('',#1462,#307);
#176=LINE('',#1465,#308);
#177=LINE('',#1467,#309);
#178=LINE('',#1469,#310);
#179=LINE('',#1471,#311);
#180=LINE('',#1473,#312);
#181=LINE('',#1475,#313);
#182=LINE('',#1477,#314);
#183=LINE('',#1479,#315);
#184=LINE('',#1481,#316);
#185=LINE('',#1482,#317);
#186=LINE('',#1485,#318);
#187=LINE('',#1489,#319);
#188=LINE('',#1491,#320);
#189=LINE('',#1493,#321);
#190=LINE('',#1495,#322);
#191=LINE('',#1497,#323);
#192=LINE('',#1499,#324);
#193=LINE('',#1501,#325);
#194=LINE('',#1503,#326);
#195=LINE('',#1505,#327);
#196=LINE('',#1507,#328);
#197=LINE('',#1509,#329);
#198=LINE('',#1512,#330);
#199=LINE('',#1523,#331);
#200=LINE('',#1525,#332);
#201=LINE('',#1527,#333);
#202=LINE('',#1528,#334);
#203=LINE('',#1531,#335);
#204=LINE('',#1533,#336);
#205=LINE('',#1534,#337);
#206=LINE('',#1537,#338);
#207=LINE('',#1539,#339);
#208=LINE('',#1540,#340);
#209=LINE('',#1543,#341);
#210=LINE('',#1545,#342);
#211=LINE('',#1546,#343);
#212=LINE('',#1549,#344);
#213=LINE('',#1551,#345);
#214=LINE('',#1552,#346);
#215=LINE('',#1555,#347);
#216=LINE('',#1557,#348);
#217=LINE('',#1558,#349);
#218=LINE('',#1561,#350);
#219=LINE('',#1563,#351);
#220=LINE('',#1564,#352);
#221=LINE('',#1572,#353);
#222=LINE('',#1574,#354);
#223=LINE('',#1576,#355);
#224=LINE('',#1577,#356);
#225=LINE('',#1583,#357);
#226=LINE('',#1586,#358);
#227=LINE('',#1590,#359);
#228=LINE('',#1595,#360);
#229=LINE('',#1597,#361);
#230=LINE('',#1599,#362);
#231=LINE('',#1601,#363);
#232=LINE('',#1603,#364);
#233=LINE('',#1604,#365);
#234=LINE('',#1607,#366);
#235=LINE('',#1608,#367);
#236=LINE('',#1609,#368);
#237=LINE('',#1612,#369);
#238=LINE('',#1614,#370);
#239=LINE('',#1616,#371);
#240=LINE('',#1618,#372);
#241=LINE('',#1619,#373);
#242=LINE('',#1622,#374);
#243=LINE('',#1624,#375);
#244=LINE('',#1626,#376);
#245=LINE('',#1628,#377);
#246=LINE('',#1629,#378);
#247=LINE('',#1632,#379);
#248=LINE('',#1634,#380);
#249=LINE('',#1636,#381);
#250=LINE('',#1637,#382);
#251=LINE('',#1640,#383);
#252=LINE('',#1641,#384);
#253=LINE('',#1644,#385);
#254=LINE('',#1646,#386);
#255=LINE('',#1647,#387);
#256=LINE('',#1650,#388);
#257=LINE('',#1651,#389);
#258=LINE('',#1655,#390);
#259=LINE('',#1659,#391);
#260=LINE('',#1663,#392);
#261=LINE('',#1667,#393);
#262=LINE('',#1670,#394);
#263=LINE('',#1671,#395);
#264=LINE('',#1674,#396);
#265=LINE('',#1675,#397);
#266=LINE('',#1678,#398);
#267=LINE('',#1680,#399);
#268=LINE('',#1681,#400);
#269=LINE('',#1683,#401);
#270=LINE('',#1684,#402);
#271=LINE('',#1686,#403);
#272=LINE('',#1689,#404);
#273=LINE('',#1690,#405);
#274=LINE('',#1692,#406);
#275=LINE('',#1695,#407);
#276=LINE('',#1698,#408);
#277=LINE('',#1701,#409);
#278=LINE('',#1702,#410);
#279=LINE('',#1705,#411);
#280=LINE('',#1706,#412);
#281=LINE('',#1709,#413);
#282=LINE('',#1710,#414);
#283=LINE('',#1713,#415);
#284=LINE('',#1714,#416);
#285=LINE('',#1717,#417);
#286=LINE('',#1718,#418);
#287=LINE('',#1721,#419);
#288=LINE('',#1722,#420);
#289=LINE('',#1725,#421);
#290=LINE('',#1726,#422);
#291=LINE('',#1729,#423);
#292=LINE('',#1730,#424);
#293=LINE('',#1733,#425);
#294=LINE('',#1734,#426);
#295=LINE('',#1737,#427);
#296=LINE('',#1738,#428);
#297=LINE('',#1741,#429);
#298=LINE('',#1742,#430);
#299=LINE('',#1746,#431);
#300=LINE('',#1749,#432);
#301=LINE('',#1750,#433);
#302=LINE('',#1752,#434);
#303=LINE('',#1754,#435);
#304=VECTOR('',#1178,10.);
#305=VECTOR('',#1179,10.);
#306=VECTOR('',#1180,10.);
#307=VECTOR('',#1181,10.);
#308=VECTOR('',#1184,10.);
#309=VECTOR('',#1185,10.);
#310=VECTOR('',#1186,10.);
#311=VECTOR('',#1187,10.);
#312=VECTOR('',#1188,10.);
#313=VECTOR('',#1189,10.);
#314=VECTOR('',#1190,10.);
#315=VECTOR('',#1191,10.);
#316=VECTOR('',#1192,10.);
#317=VECTOR('',#1193,10.);
#318=VECTOR('',#1194,10.);
#319=VECTOR('',#1197,10.);
#320=VECTOR('',#1198,10.);
#321=VECTOR('',#1199,10.);
#322=VECTOR('',#1200,10.);
#323=VECTOR('',#1201,10.);
#324=VECTOR('',#1202,10.);
#325=VECTOR('',#1203,10.);
#326=VECTOR('',#1204,10.);
#327=VECTOR('',#1205,10.);
#328=VECTOR('',#1206,10.);
#329=VECTOR('',#1207,10.);
#330=VECTOR('',#1210,10.);
#331=VECTOR('',#1219,10.);
#332=VECTOR('',#1220,10.);
#333=VECTOR('',#1221,10.);
#334=VECTOR('',#1222,10.);
#335=VECTOR('',#1225,10.);
#336=VECTOR('',#1226,10.);
#337=VECTOR('',#1227,10.);
#338=VECTOR('',#1230,10.);
#339=VECTOR('',#1231,10.);
#340=VECTOR('',#1232,10.);
#341=VECTOR('',#1235,10.);
#342=VECTOR('',#1236,10.);
#343=VECTOR('',#1237,10.);
#344=VECTOR('',#1240,10.);
#345=VECTOR('',#1241,10.);
#346=VECTOR('',#1242,10.);
#347=VECTOR('',#1245,10.);
#348=VECTOR('',#1246,10.);
#349=VECTOR('',#1247,10.);
#350=VECTOR('',#1250,10.);
#351=VECTOR('',#1251,10.);
#352=VECTOR('',#1252,10.);
#353=VECTOR('',#1265,10.);
#354=VECTOR('',#1266,10.);
#355=VECTOR('',#1267,10.);
#356=VECTOR('',#1268,10.);
#357=VECTOR('',#1275,15.);
#358=VECTOR('',#1278,10.);
#359=VECTOR('',#1285,10.);
#360=VECTOR('',#1290,10.);
#361=VECTOR('',#1291,10.);
#362=VECTOR('',#1292,10.);
#363=VECTOR('',#1293,10.);
#364=VECTOR('',#1294,10.);
#365=VECTOR('',#1295,10.);
#366=VECTOR('',#1298,10.);
#367=VECTOR('',#1299,10.);
#368=VECTOR('',#1300,10.);
#369=VECTOR('',#1303,10.);
#370=VECTOR('',#1304,10.);
#371=VECTOR('',#1305,10.);
#372=VECTOR('',#1306,10.);
#373=VECTOR('',#1307,10.);
#374=VECTOR('',#1310,10.);
#375=VECTOR('',#1311,10.);
#376=VECTOR('',#1312,10.);
#377=VECTOR('',#1313,10.);
#378=VECTOR('',#1314,10.);
#379=VECTOR('',#1317,10.);
#380=VECTOR('',#1318,10.);
#381=VECTOR('',#1319,10.);
#382=VECTOR('',#1320,10.);
#383=VECTOR('',#1323,10.);
#384=VECTOR('',#1324,10.);
#385=VECTOR('',#1327,10.);
#386=VECTOR('',#1328,10.);
#387=VECTOR('',#1329,10.);
#388=VECTOR('',#1332,10.);
#389=VECTOR('',#1333,10.);
#390=VECTOR('',#1338,2.25);
#391=VECTOR('',#1343,2.25);
#392=VECTOR('',#1348,2.25);
#393=VECTOR('',#1353,2.25);
#394=VECTOR('',#1356,10.);
#395=VECTOR('',#1357,10.);
#396=VECTOR('',#1360,10.);
#397=VECTOR('',#1361,10.);
#398=VECTOR('',#1364,10.);
#399=VECTOR('',#1365,10.);
#400=VECTOR('',#1366,10.);
#401=VECTOR('',#1369,10.);
#402=VECTOR('',#1370,10.);
#403=VECTOR('',#1373,10.);
#404=VECTOR('',#1376,10.);
#405=VECTOR('',#1377,10.);
#406=VECTOR('',#1380,10.);
#407=VECTOR('',#1383,10.);
#408=VECTOR('',#1386,10.);
#409=VECTOR('',#1389,10.);
#410=VECTOR('',#1390,10.);
#411=VECTOR('',#1393,10.);
#412=VECTOR('',#1394,10.);
#413=VECTOR('',#1397,10.);
#414=VECTOR('',#1398,10.);
#415=VECTOR('',#1401,10.);
#416=VECTOR('',#1402,10.);
#417=VECTOR('',#1405,10.);
#418=VECTOR('',#1406,10.);
#419=VECTOR('',#1409,10.);
#420=VECTOR('',#1410,10.);
#421=VECTOR('',#1413,10.);
#422=VECTOR('',#1414,10.);
#423=VECTOR('',#1417,10.);
#424=VECTOR('',#1418,10.);
#425=VECTOR('',#1421,10.);
#426=VECTOR('',#1422,10.);
#427=VECTOR('',#1425,10.);
#428=VECTOR('',#1426,10.);
#429=VECTOR('',#1429,10.);
#430=VECTOR('',#1430,10.);
#431=VECTOR('',#1435,10.);
#432=VECTOR('',#1438,10.);
#433=VECTOR('',#1439,10.);
#434=VECTOR('',#1442,10.);
#435=VECTOR('',#1445,10.);
#436=VERTEX_POINT('',#1455);
#437=VERTEX_POINT('',#1456);
#438=VERTEX_POINT('',#1458);
#439=VERTEX_POINT('',#1460);
#440=VERTEX_POINT('',#1464);
#441=VERTEX_POINT('',#1466);
#442=VERTEX_POINT('',#1468);
#443=VERTEX_POINT('',#1470);
#444=VERTEX_POINT('',#1472);
#445=VERTEX_POINT('',#1474);
#446=VERTEX_POINT('',#1476);
#447=VERTEX_POINT('',#1478);
#448=VERTEX_POINT('',#1480);
#449=VERTEX_POINT('',#1483);
#450=VERTEX_POINT('',#1484);
#451=VERTEX_POINT('',#1486);
#452=VERTEX_POINT('',#1488);
#453=VERTEX_POINT('',#1490);
#454=VERTEX_POINT('',#1492);
#455=VERTEX_POINT('',#1494);
#456=VERTEX_POINT('',#1496);
#457=VERTEX_POINT('',#1498);
#458=VERTEX_POINT('',#1500);
#459=VERTEX_POINT('',#1502);
#460=VERTEX_POINT('',#1504);
#461=VERTEX_POINT('',#1506);
#462=VERTEX_POINT('',#1508);
#463=VERTEX_POINT('',#1510);
#464=VERTEX_POINT('',#1513);
#465=VERTEX_POINT('',#1515);
#466=VERTEX_POINT('',#1517);
#467=VERTEX_POINT('',#1519);
#468=VERTEX_POINT('',#1521);
#469=VERTEX_POINT('',#1522);
#470=VERTEX_POINT('',#1524);
#471=VERTEX_POINT('',#1526);
#472=VERTEX_POINT('',#1530);
#473=VERTEX_POINT('',#1532);
#474=VERTEX_POINT('',#1536);
#475=VERTEX_POINT('',#1538);
#476=VERTEX_POINT('',#1542);
#477=VERTEX_POINT('',#1544);
#478=VERTEX_POINT('',#1548);
#479=VERTEX_POINT('',#1550);
#480=VERTEX_POINT('',#1554);
#481=VERTEX_POINT('',#1556);
#482=VERTEX_POINT('',#1560);
#483=VERTEX_POINT('',#1562);
#484=VERTEX_POINT('',#1570);
#485=VERTEX_POINT('',#1573);
#486=VERTEX_POINT('',#1575);
#487=VERTEX_POINT('',#1579);
#488=VERTEX_POINT('',#1582);
#489=VERTEX_POINT('',#1584);
#490=VERTEX_POINT('',#1593);
#491=VERTEX_POINT('',#1594);
#492=VERTEX_POINT('',#1596);
#493=VERTEX_POINT('',#1598);
#494=VERTEX_POINT('',#1600);
#495=VERTEX_POINT('',#1602);
#496=VERTEX_POINT('',#1606);
#497=VERTEX_POINT('',#1611);
#498=VERTEX_POINT('',#1613);
#499=VERTEX_POINT('',#1615);
#500=VERTEX_POINT('',#1617);
#501=VERTEX_POINT('',#1621);
#502=VERTEX_POINT('',#1623);
#503=VERTEX_POINT('',#1625);
#504=VERTEX_POINT('',#1627);
#505=VERTEX_POINT('',#1631);
#506=VERTEX_POINT('',#1633);
#507=VERTEX_POINT('',#1635);
#508=VERTEX_POINT('',#1639);
#509=VERTEX_POINT('',#1643);
#510=VERTEX_POINT('',#1645);
#511=VERTEX_POINT('',#1649);
#512=VERTEX_POINT('',#1653);
#513=VERTEX_POINT('',#1657);
#514=VERTEX_POINT('',#1661);
#515=VERTEX_POINT('',#1665);
#516=VERTEX_POINT('',#1669);
#517=VERTEX_POINT('',#1673);
#518=VERTEX_POINT('',#1677);
#519=VERTEX_POINT('',#1679);
#520=VERTEX_POINT('',#1688);
#521=VERTEX_POINT('',#1694);
#522=VERTEX_POINT('',#1696);
#523=VERTEX_POINT('',#1700);
#524=VERTEX_POINT('',#1704);
#525=VERTEX_POINT('',#1708);
#526=VERTEX_POINT('',#1712);
#527=VERTEX_POINT('',#1716);
#528=VERTEX_POINT('',#1720);
#529=VERTEX_POINT('',#1724);
#530=VERTEX_POINT('',#1728);
#531=VERTEX_POINT('',#1732);
#532=VERTEX_POINT('',#1736);
#533=VERTEX_POINT('',#1740);
#534=VERTEX_POINT('',#1744);
#535=VERTEX_POINT('',#1748);
#536=EDGE_CURVE('',#436,#437,#172,.T.);
#537=EDGE_CURVE('',#437,#438,#173,.T.);
#538=EDGE_CURVE('',#438,#439,#174,.T.);
#539=EDGE_CURVE('',#439,#436,#175,.T.);
#540=EDGE_CURVE('',#437,#440,#176,.T.);
#541=EDGE_CURVE('',#441,#440,#177,.T.);
#542=EDGE_CURVE('',#442,#441,#178,.T.);
#543=EDGE_CURVE('',#443,#442,#179,.T.);
#544=EDGE_CURVE('',#443,#444,#180,.T.);
#545=EDGE_CURVE('',#445,#444,#181,.T.);
#546=EDGE_CURVE('',#446,#445,#182,.T.);
#547=EDGE_CURVE('',#446,#447,#183,.T.);
#548=EDGE_CURVE('',#448,#447,#184,.T.);
#549=EDGE_CURVE('',#438,#448,#185,.T.);
#550=EDGE_CURVE('',#449,#450,#186,.T.);
#551=EDGE_CURVE('',#451,#449,#38,.T.);
#552=EDGE_CURVE('',#452,#451,#187,.T.);
#553=EDGE_CURVE('',#453,#452,#188,.T.);
#554=EDGE_CURVE('',#454,#453,#189,.T.);
#555=EDGE_CURVE('',#455,#454,#190,.T.);
#556=EDGE_CURVE('',#456,#455,#191,.T.);
#557=EDGE_CURVE('',#457,#456,#192,.T.);
#558=EDGE_CURVE('',#458,#457,#193,.T.);
#559=EDGE_CURVE('',#459,#458,#194,.T.);
#560=EDGE_CURVE('',#460,#459,#195,.T.);
#561=EDGE_CURVE('',#461,#460,#196,.T.);
#562=EDGE_CURVE('',#462,#461,#197,.T.);
#563=EDGE_CURVE('',#463,#462,#39,.T.);
#564=EDGE_CURVE('',#450,#463,#198,.T.);
#565=EDGE_CURVE('',#464,#464,#40,.T.);
#566=EDGE_CURVE('',#465,#465,#41,.T.);
#567=EDGE_CURVE('',#466,#466,#42,.T.);
#568=EDGE_CURVE('',#467,#467,#43,.T.);
#569=EDGE_CURVE('',#468,#469,#199,.T.);
#570=EDGE_CURVE('',#470,#469,#200,.T.);
#571=EDGE_CURVE('',#470,#471,#201,.T.);
#572=EDGE_CURVE('',#468,#471,#202,.T.);
#573=EDGE_CURVE('',#440,#472,#203,.T.);
#574=EDGE_CURVE('',#472,#473,#204,.T.);
#575=EDGE_CURVE('',#473,#441,#205,.T.);
#576=EDGE_CURVE('',#472,#474,#206,.T.);
#577=EDGE_CURVE('',#475,#474,#207,.T.);
#578=EDGE_CURVE('',#473,#475,#208,.T.);
#579=EDGE_CURVE('',#471,#476,#209,.T.);
#580=EDGE_CURVE('',#476,#477,#210,.T.);
#581=EDGE_CURVE('',#477,#468,#211,.T.);
#582=EDGE_CURVE('',#476,#478,#212,.T.);
#583=EDGE_CURVE('',#479,#478,#213,.T.);
#584=EDGE_CURVE('',#477,#479,#214,.T.);
#585=EDGE_CURVE('',#469,#480,#215,.T.);
#586=EDGE_CURVE('',#480,#481,#216,.T.);
#587=EDGE_CURVE('',#481,#470,#217,.T.);
#588=EDGE_CURVE('',#480,#482,#218,.T.);
#589=EDGE_CURVE('',#483,#482,#219,.T.);
#590=EDGE_CURVE('',#481,#483,#220,.T.);
#591=EDGE_CURVE('',#482,#479,#44,.T.);
#592=EDGE_CURVE('',#478,#483,#45,.T.);
#593=EDGE_CURVE('',#484,#475,#46,.T.);
#594=EDGE_CURVE('',#439,#484,#221,.T.);
#595=EDGE_CURVE('',#448,#485,#222,.T.);
#596=EDGE_CURVE('',#486,#485,#223,.T.);
#597=EDGE_CURVE('',#442,#486,#224,.T.);
#598=EDGE_CURVE('',#483,#487,#47,.T.);
#599=EDGE_CURVE('',#487,#478,#48,.T.);
#600=EDGE_CURVE('',#487,#488,#225,.T.);
#601=EDGE_CURVE('',#489,#488,#49,.T.);
#602=EDGE_CURVE('',#489,#484,#226,.T.);
#603=EDGE_CURVE('',#488,#474,#50,.T.);
#604=EDGE_CURVE('',#436,#489,#227,.T.);
#605=EDGE_CURVE('',#490,#491,#228,.T.);
#606=EDGE_CURVE('',#492,#490,#229,.T.);
#607=EDGE_CURVE('',#493,#492,#230,.T.);
#608=EDGE_CURVE('',#494,#493,#231,.T.);
#609=EDGE_CURVE('',#495,#494,#232,.T.);
#610=EDGE_CURVE('',#491,#495,#233,.T.);
#611=EDGE_CURVE('',#496,#490,#234,.T.);
#612=EDGE_CURVE('',#496,#443,#235,.T.);
#613=EDGE_CURVE('',#492,#486,#236,.T.);
#614=EDGE_CURVE('',#491,#497,#237,.T.);
#615=EDGE_CURVE('',#495,#498,#238,.T.);
#616=EDGE_CURVE('',#499,#498,#239,.T.);
#617=EDGE_CURVE('',#500,#499,#240,.T.);
#618=EDGE_CURVE('',#500,#497,#241,.T.);
#619=EDGE_CURVE('',#501,#446,#242,.T.);
#620=EDGE_CURVE('',#502,#501,#243,.T.);
#621=EDGE_CURVE('',#503,#502,#244,.T.);
#622=EDGE_CURVE('',#504,#503,#245,.T.);
#623=EDGE_CURVE('',#447,#504,#246,.T.);
#624=EDGE_CURVE('',#444,#505,#247,.T.);
#625=EDGE_CURVE('',#506,#496,#248,.T.);
#626=EDGE_CURVE('',#507,#506,#249,.T.);
#627=EDGE_CURVE('',#505,#507,#250,.T.);
#628=EDGE_CURVE('',#497,#508,#251,.T.);
#629=EDGE_CURVE('',#508,#506,#252,.T.);
#630=EDGE_CURVE('',#509,#502,#253,.T.);
#631=EDGE_CURVE('',#509,#510,#254,.T.);
#632=EDGE_CURVE('',#503,#510,#255,.T.);
#633=EDGE_CURVE('',#445,#511,#256,.T.);
#634=EDGE_CURVE('',#501,#511,#257,.T.);
#635=EDGE_CURVE('',#512,#512,#51,.T.);
#636=EDGE_CURVE('',#512,#467,#258,.T.);
#637=EDGE_CURVE('',#513,#513,#52,.T.);
#638=EDGE_CURVE('',#513,#466,#259,.T.);
#639=EDGE_CURVE('',#514,#514,#53,.T.);
#640=EDGE_CURVE('',#514,#465,#260,.T.);
#641=EDGE_CURVE('',#515,#515,#54,.T.);
#642=EDGE_CURVE('',#515,#464,#261,.T.);
#643=EDGE_CURVE('',#516,#494,#262,.T.);
#644=EDGE_CURVE('',#498,#516,#263,.T.);
#645=EDGE_CURVE('',#516,#517,#264,.T.);
#646=EDGE_CURVE('',#499,#517,#265,.T.);
#647=EDGE_CURVE('',#518,#493,#266,.T.);
#648=EDGE_CURVE('',#519,#518,#267,.T.);
#649=EDGE_CURVE('',#517,#519,#268,.T.);
#650=EDGE_CURVE('',#519,#509,#269,.T.);
#651=EDGE_CURVE('',#510,#518,#270,.T.);
#652=EDGE_CURVE('',#485,#504,#271,.T.);
#653=EDGE_CURVE('',#520,#508,#272,.T.);
#654=EDGE_CURVE('',#507,#520,#273,.T.);
#655=EDGE_CURVE('',#520,#500,#274,.T.);
#656=EDGE_CURVE('',#449,#521,#275,.T.);
#657=EDGE_CURVE('',#522,#521,#55,.T.);
#658=EDGE_CURVE('',#451,#522,#276,.T.);
#659=EDGE_CURVE('',#523,#522,#277,.T.);
#660=EDGE_CURVE('',#452,#523,#278,.T.);
#661=EDGE_CURVE('',#524,#523,#279,.T.);
#662=EDGE_CURVE('',#453,#524,#280,.T.);
#663=EDGE_CURVE('',#525,#524,#281,.T.);
#664=EDGE_CURVE('',#454,#525,#282,.T.);
#665=EDGE_CURVE('',#526,#525,#283,.T.);
#666=EDGE_CURVE('',#455,#526,#284,.T.);
#667=EDGE_CURVE('',#527,#526,#285,.T.);
#668=EDGE_CURVE('',#456,#527,#286,.T.);
#669=EDGE_CURVE('',#528,#527,#287,.T.);
#670=EDGE_CURVE('',#457,#528,#288,.T.);
#671=EDGE_CURVE('',#529,#528,#289,.T.);
#672=EDGE_CURVE('',#458,#529,#290,.T.);
#673=EDGE_CURVE('',#530,#529,#291,.T.);
#674=EDGE_CURVE('',#459,#530,#292,.T.);
#675=EDGE_CURVE('',#531,#530,#293,.T.);
#676=EDGE_CURVE('',#460,#531,#294,.T.);
#677=EDGE_CURVE('',#532,#531,#295,.T.);
#678=EDGE_CURVE('',#461,#532,#296,.T.);
#679=EDGE_CURVE('',#533,#532,#297,.T.);
#680=EDGE_CURVE('',#462,#533,#298,.T.);
#681=EDGE_CURVE('',#534,#533,#56,.T.);
#682=EDGE_CURVE('',#463,#534,#299,.T.);
#683=EDGE_CURVE('',#535,#534,#300,.T.);
#684=EDGE_CURVE('',#450,#535,#301,.T.);
#685=EDGE_CURVE('',#521,#535,#302,.T.);
#686=EDGE_CURVE('',#511,#505,#303,.T.);
#687=ORIENTED_EDGE('',*,*,#536,.T.);
#688=ORIENTED_EDGE('',*,*,#537,.T.);
#689=ORIENTED_EDGE('',*,*,#538,.T.);
#690=ORIENTED_EDGE('',*,*,#539,.T.);
#691=ORIENTED_EDGE('',*,*,#537,.F.);
#692=ORIENTED_EDGE('',*,*,#540,.T.);
#693=ORIENTED_EDGE('',*,*,#541,.F.);
#694=ORIENTED_EDGE('',*,*,#542,.F.);
#695=ORIENTED_EDGE('',*,*,#543,.F.);
#696=ORIENTED_EDGE('',*,*,#544,.T.);
#697=ORIENTED_EDGE('',*,*,#545,.F.);
#698=ORIENTED_EDGE('',*,*,#546,.F.);
#699=ORIENTED_EDGE('',*,*,#547,.T.);
#700=ORIENTED_EDGE('',*,*,#548,.F.);
#701=ORIENTED_EDGE('',*,*,#549,.F.);
#702=ORIENTED_EDGE('',*,*,#550,.F.);
#703=ORIENTED_EDGE('',*,*,#551,.F.);
#704=ORIENTED_EDGE('',*,*,#552,.F.);
#705=ORIENTED_EDGE('',*,*,#553,.F.);
#706=ORIENTED_EDGE('',*,*,#554,.F.);
#707=ORIENTED_EDGE('',*,*,#555,.F.);
#708=ORIENTED_EDGE('',*,*,#556,.F.);
#709=ORIENTED_EDGE('',*,*,#557,.F.);
#710=ORIENTED_EDGE('',*,*,#558,.F.);
#711=ORIENTED_EDGE('',*,*,#559,.F.);
#712=ORIENTED_EDGE('',*,*,#560,.F.);
#713=ORIENTED_EDGE('',*,*,#561,.F.);
#714=ORIENTED_EDGE('',*,*,#562,.F.);
#715=ORIENTED_EDGE('',*,*,#563,.F.);
#716=ORIENTED_EDGE('',*,*,#564,.F.);
#717=ORIENTED_EDGE('',*,*,#565,.T.);
#718=ORIENTED_EDGE('',*,*,#566,.T.);
#719=ORIENTED_EDGE('',*,*,#567,.T.);
#720=ORIENTED_EDGE('',*,*,#568,.T.);
#721=ORIENTED_EDGE('',*,*,#569,.T.);
#722=ORIENTED_EDGE('',*,*,#570,.F.);
#723=ORIENTED_EDGE('',*,*,#571,.T.);
#724=ORIENTED_EDGE('',*,*,#572,.F.);
#725=ORIENTED_EDGE('',*,*,#573,.T.);
#726=ORIENTED_EDGE('',*,*,#574,.T.);
#727=ORIENTED_EDGE('',*,*,#575,.T.);
#728=ORIENTED_EDGE('',*,*,#541,.T.);
#729=ORIENTED_EDGE('',*,*,#574,.F.);
#730=ORIENTED_EDGE('',*,*,#576,.T.);
#731=ORIENTED_EDGE('',*,*,#577,.F.);
#732=ORIENTED_EDGE('',*,*,#578,.F.);
#733=ORIENTED_EDGE('',*,*,#579,.T.);
#734=ORIENTED_EDGE('',*,*,#580,.T.);
#735=ORIENTED_EDGE('',*,*,#581,.T.);
#736=ORIENTED_EDGE('',*,*,#572,.T.);
#737=ORIENTED_EDGE('',*,*,#580,.F.);
#738=ORIENTED_EDGE('',*,*,#582,.T.);
#739=ORIENTED_EDGE('',*,*,#583,.F.);
#740=ORIENTED_EDGE('',*,*,#584,.F.);
#741=ORIENTED_EDGE('',*,*,#585,.T.);
#742=ORIENTED_EDGE('',*,*,#586,.T.);
#743=ORIENTED_EDGE('',*,*,#587,.T.);
#744=ORIENTED_EDGE('',*,*,#570,.T.);
#745=ORIENTED_EDGE('',*,*,#586,.F.);
#746=ORIENTED_EDGE('',*,*,#588,.T.);
#747=ORIENTED_EDGE('',*,*,#589,.F.);
#748=ORIENTED_EDGE('',*,*,#590,.F.);
#749=ORIENTED_EDGE('',*,*,#591,.F.);
#750=ORIENTED_EDGE('',*,*,#588,.F.);
#751=ORIENTED_EDGE('',*,*,#585,.F.);
#752=ORIENTED_EDGE('',*,*,#569,.F.);
#753=ORIENTED_EDGE('',*,*,#581,.F.);
#754=ORIENTED_EDGE('',*,*,#584,.T.);
#755=ORIENTED_EDGE('',*,*,#591,.T.);
#756=ORIENTED_EDGE('',*,*,#583,.T.);
#757=ORIENTED_EDGE('',*,*,#592,.T.);
#758=ORIENTED_EDGE('',*,*,#589,.T.);
#759=ORIENTED_EDGE('',*,*,#593,.F.);
#760=ORIENTED_EDGE('',*,*,#594,.F.);
#761=ORIENTED_EDGE('',*,*,#538,.F.);
#762=ORIENTED_EDGE('',*,*,#549,.T.);
#763=ORIENTED_EDGE('',*,*,#595,.T.);
#764=ORIENTED_EDGE('',*,*,#596,.F.);
#765=ORIENTED_EDGE('',*,*,#597,.F.);
#766=ORIENTED_EDGE('',*,*,#542,.T.);
#767=ORIENTED_EDGE('',*,*,#575,.F.);
#768=ORIENTED_EDGE('',*,*,#578,.T.);
#769=ORIENTED_EDGE('',*,*,#598,.F.);
#770=ORIENTED_EDGE('',*,*,#592,.F.);
#771=ORIENTED_EDGE('',*,*,#599,.F.);
#772=ORIENTED_EDGE('',*,*,#600,.T.);
#773=ORIENTED_EDGE('',*,*,#601,.F.);
#774=ORIENTED_EDGE('',*,*,#602,.T.);
#775=ORIENTED_EDGE('',*,*,#593,.T.);
#776=ORIENTED_EDGE('',*,*,#577,.T.);
#777=ORIENTED_EDGE('',*,*,#603,.F.);
#778=ORIENTED_EDGE('',*,*,#600,.F.);
#779=ORIENTED_EDGE('',*,*,#598,.T.);
#780=ORIENTED_EDGE('',*,*,#599,.T.);
#781=ORIENTED_EDGE('',*,*,#582,.F.);
#782=ORIENTED_EDGE('',*,*,#579,.F.);
#783=ORIENTED_EDGE('',*,*,#571,.F.);
#784=ORIENTED_EDGE('',*,*,#587,.F.);
#785=ORIENTED_EDGE('',*,*,#590,.T.);
#786=ORIENTED_EDGE('',*,*,#601,.T.);
#787=ORIENTED_EDGE('',*,*,#603,.T.);
#788=ORIENTED_EDGE('',*,*,#576,.F.);
#789=ORIENTED_EDGE('',*,*,#573,.F.);
#790=ORIENTED_EDGE('',*,*,#540,.F.);
#791=ORIENTED_EDGE('',*,*,#536,.F.);
#792=ORIENTED_EDGE('',*,*,#604,.T.);
#793=ORIENTED_EDGE('',*,*,#539,.F.);
#794=ORIENTED_EDGE('',*,*,#594,.T.);
#795=ORIENTED_EDGE('',*,*,#602,.F.);
#796=ORIENTED_EDGE('',*,*,#604,.F.);
#797=ORIENTED_EDGE('',*,*,#605,.F.);
#798=ORIENTED_EDGE('',*,*,#606,.F.);
#799=ORIENTED_EDGE('',*,*,#607,.F.);
#800=ORIENTED_EDGE('',*,*,#608,.F.);
#801=ORIENTED_EDGE('',*,*,#609,.F.);
#802=ORIENTED_EDGE('',*,*,#610,.F.);
#803=ORIENTED_EDGE('',*,*,#606,.T.);
#804=ORIENTED_EDGE('',*,*,#611,.F.);
#805=ORIENTED_EDGE('',*,*,#612,.T.);
#806=ORIENTED_EDGE('',*,*,#543,.T.);
#807=ORIENTED_EDGE('',*,*,#597,.T.);
#808=ORIENTED_EDGE('',*,*,#613,.F.);
#809=ORIENTED_EDGE('',*,*,#614,.F.);
#810=ORIENTED_EDGE('',*,*,#610,.T.);
#811=ORIENTED_EDGE('',*,*,#615,.T.);
#812=ORIENTED_EDGE('',*,*,#616,.F.);
#813=ORIENTED_EDGE('',*,*,#617,.F.);
#814=ORIENTED_EDGE('',*,*,#618,.T.);
#815=ORIENTED_EDGE('',*,*,#619,.F.);
#816=ORIENTED_EDGE('',*,*,#620,.F.);
#817=ORIENTED_EDGE('',*,*,#621,.F.);
#818=ORIENTED_EDGE('',*,*,#622,.F.);
#819=ORIENTED_EDGE('',*,*,#623,.F.);
#820=ORIENTED_EDGE('',*,*,#547,.F.);
#821=ORIENTED_EDGE('',*,*,#624,.F.);
#822=ORIENTED_EDGE('',*,*,#544,.F.);
#823=ORIENTED_EDGE('',*,*,#612,.F.);
#824=ORIENTED_EDGE('',*,*,#625,.F.);
#825=ORIENTED_EDGE('',*,*,#626,.F.);
#826=ORIENTED_EDGE('',*,*,#627,.F.);
#827=ORIENTED_EDGE('',*,*,#625,.T.);
#828=ORIENTED_EDGE('',*,*,#611,.T.);
#829=ORIENTED_EDGE('',*,*,#605,.T.);
#830=ORIENTED_EDGE('',*,*,#614,.T.);
#831=ORIENTED_EDGE('',*,*,#628,.T.);
#832=ORIENTED_EDGE('',*,*,#629,.T.);
#833=ORIENTED_EDGE('',*,*,#621,.T.);
#834=ORIENTED_EDGE('',*,*,#630,.F.);
#835=ORIENTED_EDGE('',*,*,#631,.T.);
#836=ORIENTED_EDGE('',*,*,#632,.F.);
#837=ORIENTED_EDGE('',*,*,#619,.T.);
#838=ORIENTED_EDGE('',*,*,#546,.T.);
#839=ORIENTED_EDGE('',*,*,#633,.T.);
#840=ORIENTED_EDGE('',*,*,#634,.F.);
#841=ORIENTED_EDGE('',*,*,#635,.F.);
#842=ORIENTED_EDGE('',*,*,#636,.T.);
#843=ORIENTED_EDGE('',*,*,#568,.F.);
#844=ORIENTED_EDGE('',*,*,#636,.F.);
#845=ORIENTED_EDGE('',*,*,#637,.F.);
#846=ORIENTED_EDGE('',*,*,#638,.T.);
#847=ORIENTED_EDGE('',*,*,#567,.F.);
#848=ORIENTED_EDGE('',*,*,#638,.F.);
#849=ORIENTED_EDGE('',*,*,#639,.F.);
#850=ORIENTED_EDGE('',*,*,#640,.T.);
#851=ORIENTED_EDGE('',*,*,#566,.F.);
#852=ORIENTED_EDGE('',*,*,#640,.F.);
#853=ORIENTED_EDGE('',*,*,#641,.F.);
#854=ORIENTED_EDGE('',*,*,#642,.T.);
#855=ORIENTED_EDGE('',*,*,#565,.F.);
#856=ORIENTED_EDGE('',*,*,#642,.F.);
#857=ORIENTED_EDGE('',*,*,#609,.T.);
#858=ORIENTED_EDGE('',*,*,#643,.F.);
#859=ORIENTED_EDGE('',*,*,#644,.F.);
#860=ORIENTED_EDGE('',*,*,#615,.F.);
#861=ORIENTED_EDGE('',*,*,#644,.T.);
#862=ORIENTED_EDGE('',*,*,#645,.T.);
#863=ORIENTED_EDGE('',*,*,#646,.F.);
#864=ORIENTED_EDGE('',*,*,#616,.T.);
#865=ORIENTED_EDGE('',*,*,#647,.F.);
#866=ORIENTED_EDGE('',*,*,#648,.F.);
#867=ORIENTED_EDGE('',*,*,#649,.F.);
#868=ORIENTED_EDGE('',*,*,#645,.F.);
#869=ORIENTED_EDGE('',*,*,#643,.T.);
#870=ORIENTED_EDGE('',*,*,#608,.T.);
#871=ORIENTED_EDGE('',*,*,#650,.F.);
#872=ORIENTED_EDGE('',*,*,#648,.T.);
#873=ORIENTED_EDGE('',*,*,#651,.F.);
#874=ORIENTED_EDGE('',*,*,#631,.F.);
#875=ORIENTED_EDGE('',*,*,#607,.T.);
#876=ORIENTED_EDGE('',*,*,#613,.T.);
#877=ORIENTED_EDGE('',*,*,#596,.T.);
#878=ORIENTED_EDGE('',*,*,#652,.T.);
#879=ORIENTED_EDGE('',*,*,#622,.T.);
#880=ORIENTED_EDGE('',*,*,#632,.T.);
#881=ORIENTED_EDGE('',*,*,#651,.T.);
#882=ORIENTED_EDGE('',*,*,#647,.T.);
#883=ORIENTED_EDGE('',*,*,#626,.T.);
#884=ORIENTED_EDGE('',*,*,#629,.F.);
#885=ORIENTED_EDGE('',*,*,#653,.F.);
#886=ORIENTED_EDGE('',*,*,#654,.F.);
#887=ORIENTED_EDGE('',*,*,#655,.F.);
#888=ORIENTED_EDGE('',*,*,#653,.T.);
#889=ORIENTED_EDGE('',*,*,#628,.F.);
#890=ORIENTED_EDGE('',*,*,#618,.F.);
#891=ORIENTED_EDGE('',*,*,#551,.T.);
#892=ORIENTED_EDGE('',*,*,#656,.T.);
#893=ORIENTED_EDGE('',*,*,#657,.F.);
#894=ORIENTED_EDGE('',*,*,#658,.F.);
#895=ORIENTED_EDGE('',*,*,#552,.T.);
#896=ORIENTED_EDGE('',*,*,#658,.T.);
#897=ORIENTED_EDGE('',*,*,#659,.F.);
#898=ORIENTED_EDGE('',*,*,#660,.F.);
#899=ORIENTED_EDGE('',*,*,#553,.T.);
#900=ORIENTED_EDGE('',*,*,#660,.T.);
#901=ORIENTED_EDGE('',*,*,#661,.F.);
#902=ORIENTED_EDGE('',*,*,#662,.F.);
#903=ORIENTED_EDGE('',*,*,#554,.T.);
#904=ORIENTED_EDGE('',*,*,#662,.T.);
#905=ORIENTED_EDGE('',*,*,#663,.F.);
#906=ORIENTED_EDGE('',*,*,#664,.F.);
#907=ORIENTED_EDGE('',*,*,#555,.T.);
#908=ORIENTED_EDGE('',*,*,#664,.T.);
#909=ORIENTED_EDGE('',*,*,#665,.F.);
#910=ORIENTED_EDGE('',*,*,#666,.F.);
#911=ORIENTED_EDGE('',*,*,#556,.T.);
#912=ORIENTED_EDGE('',*,*,#666,.T.);
#913=ORIENTED_EDGE('',*,*,#667,.F.);
#914=ORIENTED_EDGE('',*,*,#668,.F.);
#915=ORIENTED_EDGE('',*,*,#557,.T.);
#916=ORIENTED_EDGE('',*,*,#668,.T.);
#917=ORIENTED_EDGE('',*,*,#669,.F.);
#918=ORIENTED_EDGE('',*,*,#670,.F.);
#919=ORIENTED_EDGE('',*,*,#558,.T.);
#920=ORIENTED_EDGE('',*,*,#670,.T.);
#921=ORIENTED_EDGE('',*,*,#671,.F.);
#922=ORIENTED_EDGE('',*,*,#672,.F.);
#923=ORIENTED_EDGE('',*,*,#559,.T.);
#924=ORIENTED_EDGE('',*,*,#672,.T.);
#925=ORIENTED_EDGE('',*,*,#673,.F.);
#926=ORIENTED_EDGE('',*,*,#674,.F.);
#927=ORIENTED_EDGE('',*,*,#560,.T.);
#928=ORIENTED_EDGE('',*,*,#674,.T.);
#929=ORIENTED_EDGE('',*,*,#675,.F.);
#930=ORIENTED_EDGE('',*,*,#676,.F.);
#931=ORIENTED_EDGE('',*,*,#561,.T.);
#932=ORIENTED_EDGE('',*,*,#676,.T.);
#933=ORIENTED_EDGE('',*,*,#677,.F.);
#934=ORIENTED_EDGE('',*,*,#678,.F.);
#935=ORIENTED_EDGE('',*,*,#562,.T.);
#936=ORIENTED_EDGE('',*,*,#678,.T.);
#937=ORIENTED_EDGE('',*,*,#679,.F.);
#938=ORIENTED_EDGE('',*,*,#680,.F.);
#939=ORIENTED_EDGE('',*,*,#563,.T.);
#940=ORIENTED_EDGE('',*,*,#680,.T.);
#941=ORIENTED_EDGE('',*,*,#681,.F.);
#942=ORIENTED_EDGE('',*,*,#682,.F.);
#943=ORIENTED_EDGE('',*,*,#564,.T.);
#944=ORIENTED_EDGE('',*,*,#682,.T.);
#945=ORIENTED_EDGE('',*,*,#683,.F.);
#946=ORIENTED_EDGE('',*,*,#684,.F.);
#947=ORIENTED_EDGE('',*,*,#550,.T.);
#948=ORIENTED_EDGE('',*,*,#684,.T.);
#949=ORIENTED_EDGE('',*,*,#685,.F.);
#950=ORIENTED_EDGE('',*,*,#656,.F.);
#951=ORIENTED_EDGE('',*,*,#624,.T.);
#952=ORIENTED_EDGE('',*,*,#686,.F.);
#953=ORIENTED_EDGE('',*,*,#633,.F.);
#954=ORIENTED_EDGE('',*,*,#545,.T.);
#955=ORIENTED_EDGE('',*,*,#623,.T.);
#956=ORIENTED_EDGE('',*,*,#652,.F.);
#957=ORIENTED_EDGE('',*,*,#595,.F.);
#958=ORIENTED_EDGE('',*,*,#548,.T.);
#959=ORIENTED_EDGE('',*,*,#627,.T.);
#960=ORIENTED_EDGE('',*,*,#654,.T.);
#961=ORIENTED_EDGE('',*,*,#655,.T.);
#962=ORIENTED_EDGE('',*,*,#617,.T.);
#963=ORIENTED_EDGE('',*,*,#646,.T.);
#964=ORIENTED_EDGE('',*,*,#649,.T.);
#965=ORIENTED_EDGE('',*,*,#650,.T.);
#966=ORIENTED_EDGE('',*,*,#630,.T.);
#967=ORIENTED_EDGE('',*,*,#620,.T.);
#968=ORIENTED_EDGE('',*,*,#634,.T.);
#969=ORIENTED_EDGE('',*,*,#686,.T.);
#970=ORIENTED_EDGE('',*,*,#635,.T.);
#971=ORIENTED_EDGE('',*,*,#637,.T.);
#972=ORIENTED_EDGE('',*,*,#639,.T.);
#973=ORIENTED_EDGE('',*,*,#641,.T.);
#974=ORIENTED_EDGE('',*,*,#685,.T.);
#975=ORIENTED_EDGE('',*,*,#683,.T.);
#976=ORIENTED_EDGE('',*,*,#681,.T.);
#977=ORIENTED_EDGE('',*,*,#679,.T.);
#978=ORIENTED_EDGE('',*,*,#677,.T.);
#979=ORIENTED_EDGE('',*,*,#675,.T.);
#980=ORIENTED_EDGE('',*,*,#673,.T.);
#981=ORIENTED_EDGE('',*,*,#671,.T.);
#982=ORIENTED_EDGE('',*,*,#669,.T.);
#983=ORIENTED_EDGE('',*,*,#667,.T.);
#984=ORIENTED_EDGE('',*,*,#665,.T.);
#985=ORIENTED_EDGE('',*,*,#663,.T.);
#986=ORIENTED_EDGE('',*,*,#661,.T.);
#987=ORIENTED_EDGE('',*,*,#659,.T.);
#988=ORIENTED_EDGE('',*,*,#657,.T.);
#989=PLANE('',#1100);
#990=PLANE('',#1101);
#991=PLANE('',#1108);
#992=PLANE('',#1109);
#993=PLANE('',#1110);
#994=PLANE('',#1111);
#995=PLANE('',#1112);
#996=PLANE('',#1113);
#997=PLANE('',#1114);
#998=PLANE('',#1118);
#999=PLANE('',#1125);
#1000=PLANE('',#1126);
#1001=PLANE('',#1127);
#1002=PLANE('',#1128);
#1003=PLANE('',#1129);
#1004=PLANE('',#1130);
#1005=PLANE('',#1131);
#1006=PLANE('',#1132);
#1007=PLANE('',#1133);
#1008=PLANE('',#1134);
#1009=PLANE('',#1135);
#1010=PLANE('',#1144);
#1011=PLANE('',#1145);
#1012=PLANE('',#1146);
#1013=PLANE('',#1147);
#1014=PLANE('',#1148);
#1015=PLANE('',#1149);
#1016=PLANE('',#1150);
#1017=PLANE('',#1153);
#1018=PLANE('',#1154);
#1019=PLANE('',#1155);
#1020=PLANE('',#1156);
#1021=PLANE('',#1157);
#1022=PLANE('',#1158);
#1023=PLANE('',#1159);
#1024=PLANE('',#1160);
#1025=PLANE('',#1161);
#1026=PLANE('',#1162);
#1027=PLANE('',#1163);
#1028=PLANE('',#1166);
#1029=PLANE('',#1167);
#1030=PLANE('',#1168);
#1031=PLANE('',#1169);
#1032=PLANE('',#1170);
#1033=ADVANCED_FACE('',(#57),#989,.T.);
#1034=ADVANCED_FACE('',(#58,#27,#28,#29,#30,#31,#32),#990,.T.);
#1035=ADVANCED_FACE('',(#59),#991,.T.);
#1036=ADVANCED_FACE('',(#60),#992,.T.);
#1037=ADVANCED_FACE('',(#61),#993,.T.);
#1038=ADVANCED_FACE('',(#62),#994,.T.);
#1039=ADVANCED_FACE('',(#63),#995,.T.);
#1040=ADVANCED_FACE('',(#64),#996,.T.);
#1041=ADVANCED_FACE('',(#65),#997,.T.);
#1042=ADVANCED_FACE('',(#66),#19,.T.);
#1043=ADVANCED_FACE('',(#67),#998,.T.);
#1044=ADVANCED_FACE('',(#68),#20,.T.);
#1045=ADVANCED_FACE('',(#69),#999,.T.);
#1046=ADVANCED_FACE('',(#70),#1000,.T.);
#1047=ADVANCED_FACE('',(#71),#1001,.T.);
#1048=ADVANCED_FACE('',(#72),#1002,.F.);
#1049=ADVANCED_FACE('',(#73),#1003,.T.);
#1050=ADVANCED_FACE('',(#74),#1004,.T.);
#1051=ADVANCED_FACE('',(#75),#1005,.F.);
#1052=ADVANCED_FACE('',(#76),#1006,.F.);
#1053=ADVANCED_FACE('',(#77),#1007,.T.);
#1054=ADVANCED_FACE('',(#78),#1008,.T.);
#1055=ADVANCED_FACE('',(#79),#1009,.T.);
#1056=ADVANCED_FACE('',(#80),#21,.F.);
#1057=ADVANCED_FACE('',(#81),#22,.F.);
#1058=ADVANCED_FACE('',(#82),#23,.F.);
#1059=ADVANCED_FACE('',(#83),#24,.F.);
#1060=ADVANCED_FACE('',(#84),#1010,.T.);
#1061=ADVANCED_FACE('',(#85),#1011,.T.);
#1062=ADVANCED_FACE('',(#86),#1012,.T.);
#1063=ADVANCED_FACE('',(#87),#1013,.T.);
#1064=ADVANCED_FACE('',(#88),#1014,.T.);
#1065=ADVANCED_FACE('',(#89),#1015,.T.);
#1066=ADVANCED_FACE('',(#90),#1016,.T.);
#1067=ADVANCED_FACE('',(#91),#25,.F.);
#1068=ADVANCED_FACE('',(#92),#1017,.T.);
#1069=ADVANCED_FACE('',(#93),#1018,.T.);
#1070=ADVANCED_FACE('',(#94),#1019,.T.);
#1071=ADVANCED_FACE('',(#95),#1020,.T.);
#1072=ADVANCED_FACE('',(#96),#1021,.T.);
#1073=ADVANCED_FACE('',(#97),#1022,.T.);
#1074=ADVANCED_FACE('',(#98),#1023,.T.);
#1075=ADVANCED_FACE('',(#99),#1024,.T.);
#1076=ADVANCED_FACE('',(#100),#1025,.T.);
#1077=ADVANCED_FACE('',(#101),#1026,.T.);
#1078=ADVANCED_FACE('',(#102),#1027,.T.);
#1079=ADVANCED_FACE('',(#103),#26,.F.);
#1080=ADVANCED_FACE('',(#104),#1028,.T.);
#1081=ADVANCED_FACE('',(#105),#1029,.T.);
#1082=ADVANCED_FACE('',(#106),#1030,.T.);
#1083=ADVANCED_FACE('',(#107),#1031,.T.);
#1084=ADVANCED_FACE('',(#108,#33,#34,#35,#36,#37),#1032,.F.);
#1085=CLOSED_SHELL('',(#1033,#1034,#1035,#1036,#1037,#1038,#1039,#1040,
#1041,#1042,#1043,#1044,#1045,#1046,#1047,#1048,#1049,#1050,#1051,#1052,
#1053,#1054,#1055,#1056,#1057,#1058,#1059,#1060,#1061,#1062,#1063,#1064,
#1065,#1066,#1067,#1068,#1069,#1070,#1071,#1072,#1073,#1074,#1075,#1076,
#1077,#1078,#1079,#1080,#1081,#1082,#1083,#1084));
#1086=DERIVED_UNIT_ELEMENT(#1088,1.);
#1087=DERIVED_UNIT_ELEMENT(#1765,-3.);
#1088=(
MASS_UNIT()
NAMED_UNIT(*)
SI_UNIT(.KILO.,.GRAM.)
);
#1089=DERIVED_UNIT((#1086,#1087));
#1090=MEASURE_REPRESENTATION_ITEM('density measure',
POSITIVE_RATIO_MEASURE(7850.),#1089);
#1091=PROPERTY_DEFINITION_REPRESENTATION(#1096,#1093);
#1092=PROPERTY_DEFINITION_REPRESENTATION(#1097,#1094);
#1093=REPRESENTATION('material name',(#1095),#1762);
#1094=REPRESENTATION('density',(#1090),#1762);
#1095=DESCRIPTIVE_REPRESENTATION_ITEM('Steel','Steel');
#1096=PROPERTY_DEFINITION('material property','material name',#1777);
#1097=PROPERTY_DEFINITION('material property','density of part',#1777);
#1098=AXIS2_PLACEMENT_3D('',#1452,#1172,#1173);
#1099=AXIS2_PLACEMENT_3D('',#1453,#1174,#1175);
#1100=AXIS2_PLACEMENT_3D('',#1454,#1176,#1177);
#1101=AXIS2_PLACEMENT_3D('',#1463,#1182,#1183);
#1102=AXIS2_PLACEMENT_3D('',#1487,#1195,#1196);
#1103=AXIS2_PLACEMENT_3D('',#1511,#1208,#1209);
#1104=AXIS2_PLACEMENT_3D('',#1514,#1211,#1212);
#1105=AXIS2_PLACEMENT_3D('',#1516,#1213,#1214);
#1106=AXIS2_PLACEMENT_3D('',#1518,#1215,#1216);
#1107=AXIS2_PLACEMENT_3D('',#1520,#1217,#1218);
#1108=AXIS2_PLACEMENT_3D('',#1529,#1223,#1224);
#1109=AXIS2_PLACEMENT_3D('',#1535,#1228,#1229);
#1110=AXIS2_PLACEMENT_3D('',#1541,#1233,#1234);
#1111=AXIS2_PLACEMENT_3D('',#1547,#1238,#1239);
#1112=AXIS2_PLACEMENT_3D('',#1553,#1243,#1244);
#1113=AXIS2_PLACEMENT_3D('',#1559,#1248,#1249);
#1114=AXIS2_PLACEMENT_3D('',#1565,#1253,#1254);
#1115=AXIS2_PLACEMENT_3D('',#1566,#1255,#1256);
#1116=AXIS2_PLACEMENT_3D('',#1567,#1257,#1258);
#1117=AXIS2_PLACEMENT_3D('',#1568,#1259,#1260);
#1118=AXIS2_PLACEMENT_3D('',#1569,#1261,#1262);
#1119=AXIS2_PLACEMENT_3D('',#1571,#1263,#1264);
#1120=AXIS2_PLACEMENT_3D('',#1578,#1269,#1270);
#1121=AXIS2_PLACEMENT_3D('',#1580,#1271,#1272);
#1122=AXIS2_PLACEMENT_3D('',#1581,#1273,#1274);
#1123=AXIS2_PLACEMENT_3D('',#1585,#1276,#1277);
#1124=AXIS2_PLACEMENT_3D('',#1587,#1279,#1280);
#1125=AXIS2_PLACEMENT_3D('',#1588,#1281,#1282);
#1126=AXIS2_PLACEMENT_3D('',#1589,#1283,#1284);
#1127=AXIS2_PLACEMENT_3D('',#1591,#1286,#1287);
#1128=AXIS2_PLACEMENT_3D('',#1592,#1288,#1289);
#1129=AXIS2_PLACEMENT_3D('',#1605,#1296,#1297);
#1130=AXIS2_PLACEMENT_3D('',#1610,#1301,#1302);
#1131=AXIS2_PLACEMENT_3D('',#1620,#1308,#1309);
#1132=AXIS2_PLACEMENT_3D('',#1630,#1315,#1316);
#1133=AXIS2_PLACEMENT_3D('',#1638,#1321,#1322);
#1134=AXIS2_PLACEMENT_3D('',#1642,#1325,#1326);
#1135=AXIS2_PLACEMENT_3D('',#1648,#1330,#1331);
#1136=AXIS2_PLACEMENT_3D('',#1652,#1334,#1335);
#1137=AXIS2_PLACEMENT_3D('',#1654,#1336,#1337);
#1138=AXIS2_PLACEMENT_3D('',#1656,#1339,#1340);
#1139=AXIS2_PLACEMENT_3D('',#1658,#1341,#1342);
#1140=AXIS2_PLACEMENT_3D('',#1660,#1344,#1345);
#1141=AXIS2_PLACEMENT_3D('',#1662,#1346,#1347);
#1142=AXIS2_PLACEMENT_3D('',#1664,#1349,#1350);
#1143=AXIS2_PLACEMENT_3D('',#1666,#1351,#1352);
#1144=AXIS2_PLACEMENT_3D('',#1668,#1354,#1355);
#1145=AXIS2_PLACEMENT_3D('',#1672,#1358,#1359);
#1146=AXIS2_PLACEMENT_3D('',#1676,#1362,#1363);
#1147=AXIS2_PLACEMENT_3D('',#1682,#1367,#1368);
#1148=AXIS2_PLACEMENT_3D('',#1685,#1371,#1372);
#1149=AXIS2_PLACEMENT_3D('',#1687,#1374,#1375);
#1150=AXIS2_PLACEMENT_3D('',#1691,#1378,#1379);
#1151=AXIS2_PLACEMENT_3D('',#1693,#1381,#1382);
#1152=AXIS2_PLACEMENT_3D('',#1697,#1384,#1385);
#1153=AXIS2_PLACEMENT_3D('',#1699,#1387,#1388);
#1154=AXIS2_PLACEMENT_3D('',#1703,#1391,#1392);
#1155=AXIS2_PLACEMENT_3D('',#1707,#1395,#1396);
#1156=AXIS2_PLACEMENT_3D('',#1711,#1399,#1400);
#1157=AXIS2_PLACEMENT_3D('',#1715,#1403,#1404);
#1158=AXIS2_PLACEMENT_3D('',#1719,#1407,#1408);
#1159=AXIS2_PLACEMENT_3D('',#1723,#1411,#1412);
#1160=AXIS2_PLACEMENT_3D('',#1727,#1415,#1416);
#1161=AXIS2_PLACEMENT_3D('',#1731,#1419,#1420);
#1162=AXIS2_PLACEMENT_3D('',#1735,#1423,#1424);
#1163=AXIS2_PLACEMENT_3D('',#1739,#1427,#1428);
#1164=AXIS2_PLACEMENT_3D('',#1743,#1431,#1432);
#1165=AXIS2_PLACEMENT_3D('',#1745,#1433,#1434);
#1166=AXIS2_PLACEMENT_3D('',#1747,#1436,#1437);
#1167=AXIS2_PLACEMENT_3D('',#1751,#1440,#1441);
#1168=AXIS2_PLACEMENT_3D('',#1753,#1443,#1444);
#1169=AXIS2_PLACEMENT_3D('',#1755,#1446,#1447);
#1170=AXIS2_PLACEMENT_3D('',#1756,#1448,#1449);
#1171=AXIS2_PLACEMENT_3D('',#1757,#1450,#1451);
#1172=DIRECTION('axis',(0.,0.,1.));
#1173=DIRECTION('refdir',(1.,0.,0.));
#1174=DIRECTION('axis',(0.,0.,1.));
#1175=DIRECTION('refdir',(1.,0.,0.));
#1176=DIRECTION('center_axis',(-0.707106781186547,-0.707106781186548,0.));
#1177=DIRECTION('ref_axis',(0.,0.,1.));
#1178=DIRECTION('',(0.707106781186548,-0.707106781186547,0.));
#1179=DIRECTION('',(0.,0.,1.));
#1180=DIRECTION('',(-0.707106781186548,0.707106781186547,0.));
#1181=DIRECTION('',(0.,0.,-1.));
#1182=DIRECTION('center_axis',(-1.,-2.05391259555654E-15,0.));
#1183=DIRECTION('ref_axis',(0.,0.,1.));
#1184=DIRECTION('',(-2.05391259555654E-15,1.,0.));
#1185=DIRECTION('',(0.,0.,-1.));
#1186=DIRECTION('',(2.05391259555654E-15,-1.,0.));
#1187=DIRECTION('',(0.,0.,1.));
#1188=DIRECTION('',(2.05391259555654E-15,-1.,7.18819369659772E-9));
#1189=DIRECTION('',(-2.05372423618207E-15,0.999908292409872,-0.0135427755639211));
#1190=DIRECTION('',(0.,0.,1.));
#1191=DIRECTION('',(2.05391259555654E-15,-1.,7.18819369659772E-9));
#1192=DIRECTION('',(1.79621980460229E-31,-8.74535658668366E-17,-1.));
#1193=DIRECTION('',(2.05391259555654E-15,-1.,0.));
#1194=DIRECTION('',(7.17879924791716E-18,-0.00349518244517701,-0.999993891831183));
#1195=DIRECTION('center_axis',(-1.,-2.05391259555654E-15,0.));
#1196=DIRECTION('ref_axis',(0.,1.,0.));
#1197=DIRECTION('',(0.,0.,1.));
#1198=DIRECTION('',(2.05391259555654E-15,-1.,-3.10824126416482E-10));
#1199=DIRECTION('',(-6.50673441336908E-17,0.0316797045183219,0.999498072195055));
#1200=DIRECTION('',(0.,0.,1.));
#1201=DIRECTION('',(2.05391259555654E-15,-1.,0.));
#1202=DIRECTION('',(0.,0.,1.));
#1203=DIRECTION('',(-2.05391259555654E-15,1.,-2.52973759325219E-16));
#1204=DIRECTION('',(0.,0.,1.));
#1205=DIRECTION('',(2.05391259555654E-15,-1.,0.));
#1206=DIRECTION('',(0.,0.,-1.));
#1207=DIRECTION('',(2.05391259555654E-15,-1.,0.));
#1208=DIRECTION('center_axis',(-1.,-2.05391259555654E-15,0.));
#1209=DIRECTION('ref_axis',(0.,4.1895208476421E-16,-1.));
#1210=DIRECTION('',(-2.05391259555654E-15,1.,3.10824126416482E-10));
#1211=DIRECTION('center_axis',(1.,2.05391259555654E-15,0.));
#1212=DIRECTION('ref_axis',(0.,1.,0.));
#1213=DIRECTION('center_axis',(1.,2.05391259555654E-15,0.));
#1214=DIRECTION('ref_axis',(0.,1.,0.));
#1215=DIRECTION('center_axis',(1.,2.05391259555654E-15,0.));
#1216=DIRECTION('ref_axis',(0.,1.,0.));
#1217=DIRECTION('center_axis',(1.,2.05391259555654E-15,0.));
#1218=DIRECTION('ref_axis',(0.,1.,0.));
#1219=DIRECTION('',(-2.05391259555654E-15,1.,0.));
#1220=DIRECTION('',(0.,0.,-1.));
#1221=DIRECTION('',(2.05391259555654E-15,-1.,0.));
#1222=DIRECTION('',(0.,0.,1.));
#1223=DIRECTION('center_axis',(-0.707106781186548,0.707106781186547,0.));
#1224=DIRECTION('ref_axis',(0.,0.,1.));
#1225=DIRECTION('',(-0.707106781186547,-0.707106781186548,0.));
#1226=DIRECTION('',(0.,0.,1.));
#1227=DIRECTION('',(0.707106781186547,0.707106781186548,0.));
#1228=DIRECTION('center_axis',(0.,1.,0.));
#1229=DIRECTION('ref_axis',(0.,0.,-1.));
#1230=DIRECTION('',(-1.,0.,0.));
#1231=DIRECTION('',(0.,0.,-1.));
#1232=DIRECTION('',(-1.,0.,0.));
#1233=DIRECTION('center_axis',(-0.707106781186547,-0.707106781186548,0.));
#1234=DIRECTION('ref_axis',(0.,0.,1.));
#1235=DIRECTION('',(-0.707106781186548,0.707106781186547,0.));
#1236=DIRECTION('',(0.,0.,-1.));
#1237=DIRECTION('',(0.707106781186548,-0.707106781186547,0.));
#1238=DIRECTION('center_axis',(0.,-1.,0.));
#1239=DIRECTION('ref_axis',(0.,0.,1.));
#1240=DIRECTION('',(-1.,0.,0.));
#1241=DIRECTION('',(0.,0.,1.));
#1242=DIRECTION('',(-1.,0.,0.));
#1243=DIRECTION('center_axis',(-0.707106781186548,0.707106781186547,0.));
#1244=DIRECTION('ref_axis',(0.,0.,1.));
#1245=DIRECTION('',(-0.707106781186547,-0.707106781186548,0.));
#1246=DIRECTION('',(0.,0.,1.));
#1247=DIRECTION('',(0.707106781186547,0.707106781186548,0.));
#1248=DIRECTION('center_axis',(0.,1.,0.));
#1249=DIRECTION('ref_axis',(0.,0.,-1.));
#1250=DIRECTION('',(-1.,0.,0.));
#1251=DIRECTION('',(0.,0.,-1.));
#1252=DIRECTION('',(-1.,0.,0.));
#1253=DIRECTION('center_axis',(0.,0.,-1.));
#1254=DIRECTION('ref_axis',(0.,-1.,0.));
#1255=DIRECTION('center_axis',(0.,0.,1.));
#1256=DIRECTION('ref_axis',(-0.707106781186547,-0.707106781186547,0.));
#1257=DIRECTION('center_axis',(0.,0.,-1.));
#1258=DIRECTION('ref_axis',(-0.707106781186547,0.707106781186547,0.));
#1259=DIRECTION('center_axis',(0.,0.,-1.));
#1260=DIRECTION('ref_axis',(-1.,0.,0.));
#1261=DIRECTION('center_axis',(0.,0.,1.));
#1262=DIRECTION('ref_axis',(2.05391259555654E-15,-1.,0.));
#1263=DIRECTION('center_axis',(0.,0.,-1.));
#1264=DIRECTION('ref_axis',(-0.707106781186547,0.707106781186547,0.));
#1265=DIRECTION('',(-1.,0.,0.));
#1266=DIRECTION('',(1.,0.,0.));
#1267=DIRECTION('',(2.05391259555654E-15,-1.,0.));
#1268=DIRECTION('',(1.,0.,0.));
#1269=DIRECTION('center_axis',(0.,0.,-1.));
#1270=DIRECTION('ref_axis',(-1.,0.,0.));
#1271=DIRECTION('center_axis',(0.,0.,-1.));
#1272=DIRECTION('ref_axis',(-1.,0.,0.));
#1273=DIRECTION('center_axis',(0.,0.,-1.));
#1274=DIRECTION('ref_axis',(-1.,0.,0.));
#1275=DIRECTION('',(0.,0.,1.));
#1276=DIRECTION('center_axis',(0.,0.,1.));
#1277=DIRECTION('ref_axis',(-1.,0.,0.));
#1278=DIRECTION('',(0.,0.,1.));
#1279=DIRECTION('center_axis',(0.,0.,1.));
#1280=DIRECTION('ref_axis',(-1.,0.,0.));
#1281=DIRECTION('center_axis',(0.,0.,1.));
#1282=DIRECTION('ref_axis',(0.,1.,0.));
#1283=DIRECTION('center_axis',(0.,0.,-1.));
#1284=DIRECTION('ref_axis',(0.,-1.,0.));
#1285=DIRECTION('',(-1.,0.,0.));
#1286=DIRECTION('center_axis',(0.,-1.,0.));
#1287=DIRECTION('ref_axis',(0.,0.,1.));
#1288=DIRECTION('center_axis',(0.,0.,1.));
#1289=DIRECTION('ref_axis',(1.,0.,0.));
#1290=DIRECTION('',(0.,-1.,0.));
#1291=DIRECTION('',(-1.,0.,0.));
#1292=DIRECTION('',(0.,1.,0.));
#1293=DIRECTION('',(1.,0.,0.));
#1294=DIRECTION('',(0.,-1.,0.));
#1295=DIRECTION('',(1.,0.,0.));
#1296=DIRECTION('center_axis',(0.,1.,0.));
#1297=DIRECTION('ref_axis',(0.,0.,1.));
#1298=DIRECTION('',(0.,0.,1.));
#1299=DIRECTION('',(-1.,0.,0.));
#1300=DIRECTION('',(0.,0.,1.));
#1301=DIRECTION('center_axis',(0.,-1.,9.86864910777919E-16));
#1302=DIRECTION('ref_axis',(2.02693427035955E-30,-9.86864910777919E-16,
-1.));
#1303=DIRECTION('',(2.02693427035955E-30,-9.86864910777919E-16,-1.));
#1304=DIRECTION('',(0.,9.86864910777919E-16,1.));
#1305=DIRECTION('',(1.,0.,0.));
#1306=DIRECTION('',(-2.02693427035955E-30,9.86864910777919E-16,1.));
#1307=DIRECTION('',(1.,0.,0.));
#1308=DIRECTION('center_axis',(0.,7.18819369659772E-9,1.));
#1309=DIRECTION('ref_axis',(1.,0.,0.));
#1310=DIRECTION('',(-1.,0.,0.));
#1311=DIRECTION('',(-2.05391259555654E-15,1.,-7.18819369659772E-9));
#1312=DIRECTION('',(-1.,0.,0.));
#1313=DIRECTION('',(0.,1.,-7.18819369659772E-9));
#1314=DIRECTION('',(1.,0.,0.));
#1315=DIRECTION('center_axis',(0.,7.18819369659772E-9,1.));
#1316=DIRECTION('ref_axis',(1.,0.,0.));
#1317=DIRECTION('',(1.,0.,0.));
#1318=DIRECTION('',(0.,1.,-7.18819369659772E-9));
#1319=DIRECTION('',(1.,0.,0.));
#1320=DIRECTION('',(-2.05391259555654E-15,1.,-7.18819369659772E-9));
#1321=DIRECTION('center_axis',(1.,0.,0.));
#1322=DIRECTION('ref_axis',(0.,0.,-1.));
#1323=DIRECTION('',(2.05391259555654E-15,-1.,0.));
#1324=DIRECTION('',(-7.29696337329436E-31,3.5527136788005E-16,-1.));
#1325=DIRECTION('center_axis',(0.,1.,0.));
#1326=DIRECTION('ref_axis',(0.,0.,1.));
#1327=DIRECTION('',(0.,0.,-1.));
#1328=DIRECTION('',(1.,0.,0.));
#1329=DIRECTION('',(0.,0.,1.));
#1330=DIRECTION('center_axis',(0.,1.,0.));
#1331=DIRECTION('ref_axis',(0.,0.,1.));
#1332=DIRECTION('',(1.,0.,0.));
#1333=DIRECTION('',(0.,0.,1.));
#1334=DIRECTION('center_axis',(-1.,0.,0.));
#1335=DIRECTION('ref_axis',(0.,1.,0.));
#1336=DIRECTION('center_axis',(-1.,-2.05391259555654E-15,0.));
#1337=DIRECTION('ref_axis',(0.,1.,0.));
#1338=DIRECTION('',(-1.,0.,0.));
#1339=DIRECTION('center_axis',(-1.,0.,0.));
#1340=DIRECTION('ref_axis',(0.,1.,0.));
#1341=DIRECTION('center_axis',(-1.,-2.05391259555654E-15,0.));
#1342=DIRECTION('ref_axis',(0.,1.,0.));
#1343=DIRECTION('',(-1.,0.,0.));
#1344=DIRECTION('center_axis',(-1.,0.,0.));
#1345=DIRECTION('ref_axis',(0.,1.,0.));
#1346=DIRECTION('center_axis',(-1.,-2.05391259555654E-15,0.));
#1347=DIRECTION('ref_axis',(0.,1.,0.));
#1348=DIRECTION('',(-1.,0.,0.));
#1349=DIRECTION('center_axis',(-1.,0.,0.));
#1350=DIRECTION('ref_axis',(0.,1.,0.));
#1351=DIRECTION('center_axis',(-1.,-2.05391259555654E-15,0.));
#1352=DIRECTION('ref_axis',(0.,1.,0.));
#1353=DIRECTION('',(-1.,0.,0.));
#1354=DIRECTION('center_axis',(-1.,0.,0.));
#1355=DIRECTION('ref_axis',(0.,0.,1.));
#1356=DIRECTION('',(0.,0.,-1.));
#1357=DIRECTION('',(0.,-1.,0.));
#1358=DIRECTION('center_axis',(0.,0.,-1.));
#1359=DIRECTION('ref_axis',(-2.05391259555654E-15,1.,0.));
#1360=DIRECTION('',(-1.,0.,0.));
#1361=DIRECTION('',(2.05391259555654E-15,-1.,0.));
#1362=DIRECTION('center_axis',(0.,1.,0.));
#1363=DIRECTION('ref_axis',(0.,0.,1.));
#1364=DIRECTION('',(0.,0.,1.));
#1365=DIRECTION('',(1.,0.,0.));
#1366=DIRECTION('',(0.,0.,-1.));
#1367=DIRECTION('center_axis',(0.,0.,1.));
#1368=DIRECTION('ref_axis',(2.05391259555654E-15,-1.,0.));
#1369=DIRECTION('',(-2.05391259555654E-15,1.,0.));
#1370=DIRECTION('',(2.05391259555654E-15,-1.,0.));
#1371=DIRECTION('center_axis',(1.,0.,0.));
#1372=DIRECTION('ref_axis',(0.,0.,-1.));
#1373=DIRECTION('',(1.79621980460229E-31,-8.74535658668366E-17,-1.));
#1374=DIRECTION('center_axis',(0.,-1.,-3.5527136788005E-16));
#1375=DIRECTION('ref_axis',(-7.29696337329436E-31,3.5527136788005E-16,-1.));
#1376=DIRECTION('',(1.,0.,0.));
#1377=DIRECTION('',(7.29696337329436E-31,-3.5527136788005E-16,1.));
#1378=DIRECTION('center_axis',(0.,0.,1.));
#1379=DIRECTION('ref_axis',(2.05391259555654E-15,-1.,0.));
#1380=DIRECTION('',(-2.05391259555654E-15,1.,0.));
#1381=DIRECTION('center_axis',(1.,0.,0.));
#1382=DIRECTION('ref_axis',(0.,1.,0.));
#1383=DIRECTION('',(1.,0.,0.));
#1384=DIRECTION('center_axis',(-1.,-2.05391259555654E-15,0.));
#1385=DIRECTION('ref_axis',(0.,1.,0.));
#1386=DIRECTION('',(1.,0.,0.));
#1387=DIRECTION('center_axis',(0.,1.,0.));
#1388=DIRECTION('ref_axis',(0.,0.,1.));
#1389=DIRECTION('',(0.,0.,1.));
#1390=DIRECTION('',(1.,0.,0.));
#1391=DIRECTION('center_axis',(0.,-3.10824126416482E-10,1.));
#1392=DIRECTION('ref_axis',(2.05391259555654E-15,-1.,-3.10824126416482E-10));
#1393=DIRECTION('',(2.05391259555654E-15,-1.,-3.10824126416482E-10));
#1394=DIRECTION('',(1.,0.,0.));
#1395=DIRECTION('center_axis',(0.,0.999498072195055,-0.0316797045183219));
#1396=DIRECTION('ref_axis',(-6.50673441336908E-17,0.0316797045183219,0.999498072195055));
#1397=DIRECTION('',(-6.50673441336908E-17,0.0316797045183219,0.999498072195055));
#1398=DIRECTION('',(1.,0.,0.));
#1399=DIRECTION('center_axis',(0.,1.,0.));
#1400=DIRECTION('ref_axis',(0.,0.,1.));
#1401=DIRECTION('',(0.,0.,1.));
#1402=DIRECTION('',(1.,0.,0.));
#1403=DIRECTION('center_axis',(0.,0.,1.));
#1404=DIRECTION('ref_axis',(2.05391259555654E-15,-1.,0.));
#1405=DIRECTION('',(2.05391259555654E-15,-1.,0.));
#1406=DIRECTION('',(1.,0.,0.));
#1407=DIRECTION('center_axis',(0.,1.,0.));
#1408=DIRECTION('ref_axis',(0.,0.,1.));
#1409=DIRECTION('',(0.,0.,1.));
#1410=DIRECTION('',(1.,0.,0.));
#1411=DIRECTION('center_axis',(0.,-2.52973759325219E-16,-1.));
#1412=DIRECTION('ref_axis',(-2.05391259555654E-15,1.,-2.52973759325219E-16));
#1413=DIRECTION('',(-2.05391259555654E-15,1.,-2.52973759325219E-16));
#1414=DIRECTION('',(1.,0.,0.));
#1415=DIRECTION('center_axis',(0.,1.,0.));
#1416=DIRECTION('ref_axis',(0.,0.,1.));
#1417=DIRECTION('',(0.,0.,1.));
#1418=DIRECTION('',(1.,0.,0.));
#1419=DIRECTION('center_axis',(0.,0.,1.));
#1420=DIRECTION('ref_axis',(2.05391259555654E-15,-1.,0.));
#1421=DIRECTION('',(2.05391259555654E-15,-1.,0.));
#1422=DIRECTION('',(1.,0.,0.));
#1423=DIRECTION('center_axis',(0.,-1.,0.));
#1424=DIRECTION('ref_axis',(0.,0.,-1.));
#1425=DIRECTION('',(0.,0.,-1.));
#1426=DIRECTION('',(1.,0.,0.));
#1427=DIRECTION('center_axis',(0.,0.,1.));
#1428=DIRECTION('ref_axis',(2.05391259555654E-15,-1.,0.));
#1429=DIRECTION('',(2.05391259555654E-15,-1.,0.));
#1430=DIRECTION('',(1.,0.,0.));
#1431=DIRECTION('center_axis',(1.,0.,0.));
#1432=DIRECTION('ref_axis',(0.,4.1895208476421E-16,-1.));
#1433=DIRECTION('center_axis',(-1.,-2.05391259555654E-15,0.));
#1434=DIRECTION('ref_axis',(0.,4.1895208476421E-16,-1.));
#1435=DIRECTION('',(1.,0.,0.));
#1436=DIRECTION('center_axis',(0.,3.10824126416482E-10,-1.));
#1437=DIRECTION('ref_axis',(-2.05391259555654E-15,1.,3.10824126416482E-10));
#1438=DIRECTION('',(-2.05391259555654E-15,1.,3.10824126416482E-10));
#1439=DIRECTION('',(1.,0.,0.));
#1440=DIRECTION('center_axis',(0.,-0.999993891831183,0.00349518244517701));
#1441=DIRECTION('ref_axis',(7.17879924791716E-18,-0.00349518244517701,-0.999993891831183));
#1442=DIRECTION('',(7.17879924791716E-18,-0.00349518244517701,-0.999993891831183));
#1443=DIRECTION('center_axis',(0.,-0.0135427755639212,-0.999908292409872));
#1444=DIRECTION('ref_axis',(-2.05372423618207E-15,0.999908292409872,-0.0135427755639211));
#1445=DIRECTION('',(-2.05372423618207E-15,0.999908292409872,-0.0135427755639211));
#1446=DIRECTION('center_axis',(0.,-1.,8.74535658668366E-17));
#1447=DIRECTION('ref_axis',(1.79621980460229E-31,-8.74535658668366E-17,
-1.));
#1448=DIRECTION('center_axis',(-1.,-2.05391259555654E-15,0.));
#1449=DIRECTION('ref_axis',(0.,0.,1.));
#1450=DIRECTION('',(0.,0.,1.));
#1451=DIRECTION('',(1.,0.,0.));
#1452=CARTESIAN_POINT('',(0.,0.,0.));
#1453=CARTESIAN_POINT('',(0.,0.,0.));
#1454=CARTESIAN_POINT('Origin',(-123.500000312924,-36.6095077033175,70.3399997168779));
#1455=CARTESIAN_POINT('',(-131.000000312924,-29.1095077033175,115.12));
#1456=CARTESIAN_POINT('',(-116.000000312924,-44.1095077033175,115.12));
#1457=CARTESIAN_POINT('',(-131.000000312924,-29.1095077033175,115.12));
#1458=CARTESIAN_POINT('',(-116.000000312924,-44.1095077033175,127.12));
#1459=CARTESIAN_POINT('',(-116.000000312924,-44.1095077033175,70.3399997168779));
#1460=CARTESIAN_POINT('',(-131.000000312924,-29.1095077033175,127.12));
#1461=CARTESIAN_POINT('',(-136.777377328161,-23.3321306880812,127.12));
#1462=CARTESIAN_POINT('',(-131.000000312924,-29.1095077033175,70.3399997168779));
#1463=CARTESIAN_POINT('Origin',(-116.000000312924,-14.1095077033178,25.5599994337559));
#1464=CARTESIAN_POINT('',(-116.000000312924,15.8904922966825,115.12));
#1465=CARTESIAN_POINT('',(-116.000000312924,-6.60950770331767,115.12));
#1466=CARTESIAN_POINT('',(-116.000000312924,15.8904922966825,127.12));
#1467=CARTESIAN_POINT('',(-116.000000312924,15.8904922966825,76.3399997168779));
#1468=CARTESIAN_POINT('',(-116.000000312924,24.0000003576279,127.12));
#1469=CARTESIAN_POINT('',(-116.000000312924,-33.1642617337907,127.12));
#1470=CARTESIAN_POINT('',(-116.000000312924,24.0000005876501,-43.9999981299618));
#1471=CARTESIAN_POINT('',(-116.000000312924,24.0000003576279,76.3399997168779));
#1472=CARTESIAN_POINT('',(-116.000000312924,-24.1501636480297,-43.9999977838491));
#1473=CARTESIAN_POINT('',(-116.000000312924,-30.0547543293799,-43.9999977414058));
#1474=CARTESIAN_POINT('',(-116.000000312924,-46.3000006854536,-43.7));
#1475=CARTESIAN_POINT('',(-116.000000312924,-0.726649146541823,-44.3172462777559));
#1476=CARTESIAN_POINT('',(-116.000000312924,-46.3000006854536,-43.9999976246318));
#1477=CARTESIAN_POINT('',(-116.000000312924,-46.3000006854536,-9.07000028312209));
#1478=CARTESIAN_POINT('',(-116.000000312924,-52.2190155342412,-43.9999975820848));
#1479=CARTESIAN_POINT('',(-116.000000312924,-30.0547543293799,-43.9999977414058));
#1480=CARTESIAN_POINT('',(-116.000000312924,-52.2190157642634,127.12));
#1481=CARTESIAN_POINT('',(-116.000000312924,-52.2190157642635,-25.2200008270144));
#1482=CARTESIAN_POINT('',(-116.000000312924,-33.1642617337907,127.12));
#1483=CARTESIAN_POINT('',(-116.000000312924,-19.4095683565791,104.19718009846));
#1484=CARTESIAN_POINT('',(-116.000000312924,-19.4726469289388,86.1499999999999));
#1485=CARTESIAN_POINT('',(-116.000000312924,-19.5785000764723,55.8647423274867));
#1486=CARTESIAN_POINT('',(-116.000000312924,-39.4095072748909,104.232131922912));
#1487=CARTESIAN_POINT('Origin',(-116.000000312924,-29.4095072748909,104.232131922912));
#1488=CARTESIAN_POINT('',(-116.000000312924,-39.4095072748909,86.1499999999999));
#1489=CARTESIAN_POINT('',(-116.000000312924,-39.4095072748909,64.8960656783338));
#1490=CARTESIAN_POINT('',(-116.000000312924,-39.3999985908625,86.1500000000029));
#1491=CARTESIAN_POINT('',(-116.000000312924,-26.7595074985209,86.1500000039319));
#1492=CARTESIAN_POINT('',(-116.000000312924,-39.4095072748909,85.85));
#1493=CARTESIAN_POINT('',(-116.000000312924,-40.3465627148593,56.2858004587249));
#1494=CARTESIAN_POINT('',(-116.000000312924,-39.4095072748909,73.55));
#1495=CARTESIAN_POINT('',(-116.000000312924,-39.4095072748909,55.7049997168779));
#1496=CARTESIAN_POINT('',(-116.000000312924,-39.1095072748909,73.55));
#1497=CARTESIAN_POINT('',(-116.000000312924,-26.7595074891045,73.55));
#1498=CARTESIAN_POINT('',(-116.000000312924,-39.1095072748909,73.35));
#1499=CARTESIAN_POINT('',(-116.000000312924,-39.1095072748909,49.5549997168779));
#1500=CARTESIAN_POINT('',(-116.000000312924,-39.4095072748909,73.35));
#1501=CARTESIAN_POINT('',(-116.000000312924,-26.6095076801358,73.35));
#1502=CARTESIAN_POINT('',(-116.000000312924,-39.4095072748909,40.55));
#1503=CARTESIAN_POINT('',(-116.000000312924,-39.4095072748909,49.4549997168779));
#1504=CARTESIAN_POINT('',(-116.000000312924,11.1904916670896,40.55));
#1505=CARTESIAN_POINT('',(-116.000000312924,-26.7595074891045,40.55));
#1506=CARTESIAN_POINT('',(-116.000000312924,11.1904916670896,75.55));
#1507=CARTESIAN_POINT('',(-116.000000312924,11.1904916670896,33.0549997168779));
#1508=CARTESIAN_POINT('',(-116.000000312924,13.8904916670896,75.55));
#1509=CARTESIAN_POINT('',(-116.000000312924,-1.45950801811422,75.55));
#1510=CARTESIAN_POINT('',(-116.000000312924,13.8904916670896,86.1499999999999));
#1511=CARTESIAN_POINT('Origin',(-116.000000312924,13.8904916670896,80.85));
#1512=CARTESIAN_POINT('',(-116.000000312924,-0.109508027530638,86.1500000122153));
#1513=CARTESIAN_POINT('',(-116.000000312924,-26.400000022352,18.2749999999971));
#1514=CARTESIAN_POINT('Origin',(-116.000000312924,-24.150000022352,18.2749999999971));
#1515=CARTESIAN_POINT('',(-116.000000312924,-6.40000002235248,-21.725));
#1516=CARTESIAN_POINT('Origin',(-116.000000312924,-4.15000002235248,-21.725));
#1517=CARTESIAN_POINT('',(-116.000000312924,-26.4000000223517,-21.7250000000002));
#1518=CARTESIAN_POINT('Origin',(-116.000000312924,-24.1500000223517,-21.7250000000002));
#1519=CARTESIAN_POINT('',(-116.000000312924,-6.4000000223506,18.2749999999973));
#1520=CARTESIAN_POINT('Origin',(-116.000000312924,-4.1500000223506,18.2749999999973));
#1521=CARTESIAN_POINT('',(-116.000000312924,-44.1095078039004,24.55));
#1522=CARTESIAN_POINT('',(-116.000000312924,15.8904921960996,24.55));
#1523=CARTESIAN_POINT('',(-116.000000312924,-6.60950775360911,24.55));
#1524=CARTESIAN_POINT('',(-116.000000312924,15.8904921960996,34.55));
#1525=CARTESIAN_POINT('',(-116.000000312924,15.8904921960996,30.0549997168779));
#1526=CARTESIAN_POINT('',(-116.000000312924,-44.1095078039004,34.55));
#1527=CARTESIAN_POINT('',(-116.000000312924,-21.6095077536091,34.55));
#1528=CARTESIAN_POINT('',(-116.000000312924,-44.1095078039004,25.0549997168779));
#1529=CARTESIAN_POINT('Origin',(-123.500000312924,8.39049229668245,76.3399997168779));
#1530=CARTESIAN_POINT('',(-131.000000312924,0.890492296682455,115.12));
#1531=CARTESIAN_POINT('',(-123.500000312924,8.39049229668247,115.12));
#1532=CARTESIAN_POINT('',(-131.000000312924,0.890492296682455,127.12));
#1533=CARTESIAN_POINT('',(-131.000000312924,0.890492296682455,76.3399997168779));
#1534=CARTESIAN_POINT('',(-117.722623297688,14.1678693119188,127.12));
#1535=CARTESIAN_POINT('Origin',(-116.000000312924,0.890492296682455,127.12));
#1536=CARTESIAN_POINT('',(-181.000000312924,0.890492296682455,115.12));
#1537=CARTESIAN_POINT('',(-116.000000312924,0.890492296682455,115.12));
#1538=CARTESIAN_POINT('',(-181.000000312924,0.890492296682455,127.12));
#1539=CARTESIAN_POINT('',(-181.000000312924,0.890492296682455,124.12));
#1540=CARTESIAN_POINT('',(-116.000000312924,0.890492296682455,127.12));
#1541=CARTESIAN_POINT('Origin',(-123.500000312924,-36.6095078039004,25.0549997168779));
#1542=CARTESIAN_POINT('',(-131.000000312924,-29.1095078039004,34.55));
#1543=CARTESIAN_POINT('',(-123.500000312924,-36.6095078039004,34.55));
#1544=CARTESIAN_POINT('',(-131.000000312924,-29.1095078039004,24.55));
#1545=CARTESIAN_POINT('',(-131.000000312924,-29.1095078039004,25.0549997168779));
#1546=CARTESIAN_POINT('',(-131.000000312924,-29.1095078039004,24.55));
#1547=CARTESIAN_POINT('Origin',(-116.000000312924,-29.1095078039004,24.55));
#1548=CARTESIAN_POINT('',(-181.000000312924,-29.1095078039004,34.5499999999999));
#1549=CARTESIAN_POINT('',(-116.000000312924,-29.1095078039004,34.55));
#1550=CARTESIAN_POINT('',(-181.000000312924,-29.1095078039004,24.55));
#1551=CARTESIAN_POINT('',(-181.000000312924,-29.1095078039004,27.05));
#1552=CARTESIAN_POINT('',(-116.000000312924,-29.1095078039004,24.55));
#1553=CARTESIAN_POINT('Origin',(-123.500000312924,8.39049219609957,30.0549997168779));
#1554=CARTESIAN_POINT('',(-131.000000312924,0.890492196099568,24.55));
#1555=CARTESIAN_POINT('',(-123.500000312924,8.39049219609959,24.55));
#1556=CARTESIAN_POINT('',(-131.000000312924,0.890492196099568,34.55));
#1557=CARTESIAN_POINT('',(-131.000000312924,0.890492196099568,30.0549997168779));
#1558=CARTESIAN_POINT('',(-131.000000312924,0.890492196099579,34.55));
#1559=CARTESIAN_POINT('Origin',(-116.000000312924,0.890492196099568,34.55));
#1560=CARTESIAN_POINT('',(-181.000000312924,0.890492196099568,24.55));
#1561=CARTESIAN_POINT('',(-116.000000312924,0.890492196099568,24.55));
#1562=CARTESIAN_POINT('',(-181.000000312924,0.890492196099568,34.5499999999999));
#1563=CARTESIAN_POINT('',(-181.000000312924,0.890492196099568,32.05));
#1564=CARTESIAN_POINT('',(-116.000000312924,0.890492196099568,34.55));
#1565=CARTESIAN_POINT('Origin',(-116.000000312924,0.890492196099568,24.55));
#1566=CARTESIAN_POINT('Origin',(-181.000000312924,-14.1095078039004,24.55));
#1567=CARTESIAN_POINT('Origin',(-181.000000312924,-14.1095078039004,32.05));
#1568=CARTESIAN_POINT('Origin',(-181.000000312924,-14.1095077033176,34.5499999999999));
#1569=CARTESIAN_POINT('Origin',(-116.000000312924,24.0000003576279,127.12));
#1570=CARTESIAN_POINT('',(-181.000000312924,-29.1095077033175,127.12));
#1571=CARTESIAN_POINT('Origin',(-181.000000312924,-14.1095077033175,127.12));
#1572=CARTESIAN_POINT('',(-116.000000312924,-29.1095077033175,127.12));
#1573=CARTESIAN_POINT('',(-48.0000003129243,-52.2190157642634,127.12));
#1574=CARTESIAN_POINT('',(-116.000000312924,-52.2190157642634,127.12));
#1575=CARTESIAN_POINT('',(-48.0000003129244,24.0000003576279,127.12));
#1576=CARTESIAN_POINT('',(-48.0000003129243,-33.1642617337907,127.12));
#1577=CARTESIAN_POINT('',(-116.000000312924,24.0000003576279,127.12));
#1578=CARTESIAN_POINT('Origin',(-181.000000312924,-14.1095077033176,127.12));
#1579=CARTESIAN_POINT('',(-166.000000312924,-14.1095077033176,34.5499999999999));
#1580=CARTESIAN_POINT('Origin',(-181.000000312924,-14.1095077033176,34.5499999999999));
#1581=CARTESIAN_POINT('Origin',(-181.000000312924,-14.1095077033176,34.5499999999999));
#1582=CARTESIAN_POINT('',(-166.000000312924,-14.1095077033176,115.12));
#1583=CARTESIAN_POINT('',(-166.000000312924,-14.1095077033176,127.12));
#1584=CARTESIAN_POINT('',(-181.000000312924,-29.1095077033175,115.12));
#1585=CARTESIAN_POINT('Origin',(-181.000000312924,-14.1095077033176,115.12));
#1586=CARTESIAN_POINT('',(-181.000000312924,-29.1095077033175,118.12));
#1587=CARTESIAN_POINT('Origin',(-181.000000312924,-14.1095077033176,115.12));
#1588=CARTESIAN_POINT('Origin',(-116.000000312924,-29.1095078039004,34.55));
#1589=CARTESIAN_POINT('Origin',(-116.000000312924,0.890492296682455,115.12));
#1590=CARTESIAN_POINT('',(-116.000000312924,-29.1095077033175,115.12));
#1591=CARTESIAN_POINT('Origin',(-116.000000312924,-29.1095077033175,115.12));
#1592=CARTESIAN_POINT('Origin',(-111.000000312924,21.2999999999999,106.000001356006));
#1593=CARTESIAN_POINT('',(-96.0000003129244,24.0000003576279,106.000001356006));
#1594=CARTESIAN_POINT('',(-96.0000003129244,21.2999999999999,106.000001356006));
#1595=CARTESIAN_POINT('',(-96.0000003129244,21.9000000894069,106.000001356006));
#1596=CARTESIAN_POINT('',(-48.0000003129244,24.0000003576279,106.000001356006));
#1597=CARTESIAN_POINT('',(-113.500000312924,24.0000003576279,106.000001356006));
#1598=CARTESIAN_POINT('',(-48.0000003129244,-49.5190157642635,106.000001356006));
#1599=CARTESIAN_POINT('',(-48.0000003129244,3.59524614834108,106.000001356006));
#1600=CARTESIAN_POINT('',(-51.0000003129244,-49.5190157642635,106.000001356006));
#1601=CARTESIAN_POINT('',(-79.5000003129243,-49.5190157642634,106.000001356006));
#1602=CARTESIAN_POINT('',(-51.0000003129244,21.2999999999999,106.000001356006));
#1603=CARTESIAN_POINT('',(-51.0000003129244,3.59524614834107,106.000001356006));
#1604=CARTESIAN_POINT('',(-111.000000312924,21.3,106.000001356006));
#1605=CARTESIAN_POINT('Origin',(-116.000000312924,24.0000003576279,-76.0000011324883));
#1606=CARTESIAN_POINT('',(-96.0000003129244,24.0000005876501,-43.9999981299618));
#1607=CARTESIAN_POINT('',(-96.0000003129244,24.0000003576279,76.3399997168779));
#1608=CARTESIAN_POINT('',(-116.000000312924,24.0000003576279,-43.9999981299618));
#1609=CARTESIAN_POINT('',(-48.0000003129244,24.0000003576279,118.090000339001));
#1610=CARTESIAN_POINT('Origin',(-111.000000312924,21.3,124.12));
#1611=CARTESIAN_POINT('',(-96.0000003129244,21.2999999999999,73.55));
#1612=CARTESIAN_POINT('',(-96.0000003129244,21.2999999999999,49.5549997168779));
#1613=CARTESIAN_POINT('',(-51.0000003129244,21.3,124.12));
#1614=CARTESIAN_POINT('',(-51.0000003129244,21.2999999999999,74.8399997168779));
#1615=CARTESIAN_POINT('',(-111.000000312924,21.3,124.12));
#1616=CARTESIAN_POINT('',(-111.000000312924,21.3,124.12));
#1617=CARTESIAN_POINT('',(-111.000000312924,21.2999999999999,73.55));
#1618=CARTESIAN_POINT('',(-111.000000312924,21.2999999999999,74.8399997168779));
#1619=CARTESIAN_POINT('',(-111.000000312924,21.2999999999999,73.55));
#1620=CARTESIAN_POINT('Origin',(-116.000000312924,-46.0000004554313,-43.9999976267882));
#1621=CARTESIAN_POINT('',(-111.000000312924,-46.3000006854536,-43.9999976246318));
#1622=CARTESIAN_POINT('',(-116.000000312924,-46.3000006854536,-43.9999976246318));
#1623=CARTESIAN_POINT('',(-111.000000312924,-49.2190155342413,-43.9999976036493));
#1624=CARTESIAN_POINT('',(-111.000000312924,-30.0547543293799,-43.9999977414058));
#1625=CARTESIAN_POINT('',(-48.0000003129243,-49.2190155342413,-43.9999976036493));
#1626=CARTESIAN_POINT('',(-113.500000312924,-49.2190157642634,-43.9999976036493));
#1627=CARTESIAN_POINT('',(-48.0000003129243,-52.2190155342412,-43.9999975820848));
#1628=CARTESIAN_POINT('',(-48.0000003129244,-30.054754629487,-43.9999977414058));
#1629=CARTESIAN_POINT('',(-116.000000312924,-52.2190157642635,-43.9999975820848));
#1630=CARTESIAN_POINT('Origin',(-116.000000312924,-46.0000004554313,-43.9999976267882));
#1631=CARTESIAN_POINT('',(-111.000000312924,-24.1501636480294,-43.9999977838491));
#1632=CARTESIAN_POINT('',(-116.000000312924,-24.15016364803,-43.9999977838491));
#1633=CARTESIAN_POINT('',(-96.0000003129244,21.0000002300221,-43.9999981083972));
#1634=CARTESIAN_POINT('',(-96.0000003129244,-11.7500003883141,-43.9999978729839));
#1635=CARTESIAN_POINT('',(-111.000000312924,21.0000002300221,-43.9999981083972));
#1636=CARTESIAN_POINT('',(-113.500000312924,21.,-43.9999981083972));
#1637=CARTESIAN_POINT('',(-111.000000312924,-30.0547543293799,-43.9999977414058));
#1638=CARTESIAN_POINT('Origin',(-96.0000003129244,22.5000001788139,25.5599994337559));
#1639=CARTESIAN_POINT('',(-96.0000003129244,20.9999999999999,73.55));
#1640=CARTESIAN_POINT('',(-96.0000003129244,21.7500000894068,73.55));
#1641=CARTESIAN_POINT('',(-96.0000003129244,21.,-25.2200008493662));
#1642=CARTESIAN_POINT('Origin',(-111.000000312924,-49.2190157642634,-76.0000011093493));
#1643=CARTESIAN_POINT('',(-111.000000312924,-49.2190157642634,73.55));
#1644=CARTESIAN_POINT('',(-111.000000312924,-49.2190157642634,-25.2200008377967));
#1645=CARTESIAN_POINT('',(-48.0000003129243,-49.2190157642634,73.55));
#1646=CARTESIAN_POINT('',(-111.000000312924,-49.2190157642634,73.55));
#1647=CARTESIAN_POINT('',(-48.0000003129243,-49.2190157642634,48.8049997226626));
#1648=CARTESIAN_POINT('Origin',(-116.000000312924,-46.3000006854536,-62.3));
#1649=CARTESIAN_POINT('',(-111.000000312924,-46.3000006854536,-43.7));
#1650=CARTESIAN_POINT('',(-116.000000312924,-46.3000006854536,-43.7));
#1651=CARTESIAN_POINT('',(-111.000000312924,-46.3000006854536,-9.07000028312209));
#1652=CARTESIAN_POINT('Origin',(-63.8000001721084,-4.1500000223506,18.2749999999973));
#1653=CARTESIAN_POINT('',(-111.000000312924,-6.4000000223506,18.2749999999973));
#1654=CARTESIAN_POINT('Origin',(-111.000000312924,-4.1500000223506,18.2749999999973));
#1655=CARTESIAN_POINT('',(-63.8000001721084,-6.4000000223506,18.2749999999973));
#1656=CARTESIAN_POINT('Origin',(-63.8000001721084,-24.1500000223517,-21.7250000000002));
#1657=CARTESIAN_POINT('',(-111.000000312924,-26.4000000223517,-21.7250000000002));
#1658=CARTESIAN_POINT('Origin',(-111.000000312924,-24.1500000223517,-21.7250000000002));
#1659=CARTESIAN_POINT('',(-63.8000001721084,-26.4000000223517,-21.7250000000002));
#1660=CARTESIAN_POINT('Origin',(-63.8000001721084,-4.15000002235248,-21.725));
#1661=CARTESIAN_POINT('',(-111.000000312924,-6.40000002235248,-21.725));
#1662=CARTESIAN_POINT('Origin',(-111.000000312924,-4.15000002235248,-21.725));
#1663=CARTESIAN_POINT('',(-63.8000001721084,-6.40000002235248,-21.725));
#1664=CARTESIAN_POINT('Origin',(-63.8000001721084,-24.150000022352,18.2749999999971));
#1665=CARTESIAN_POINT('',(-111.000000312924,-26.400000022352,18.2749999999971));
#1666=CARTESIAN_POINT('Origin',(-111.000000312924,-24.150000022352,18.2749999999971));
#1667=CARTESIAN_POINT('',(-63.8000001721084,-26.400000022352,18.2749999999971));
#1668=CARTESIAN_POINT('Origin',(-51.0000003129244,-14.1095077033178,25.5599994337559));
#1669=CARTESIAN_POINT('',(-51.0000003129244,-49.5190157642634,124.12));
#1670=CARTESIAN_POINT('',(-51.0000003129244,-49.5190157642634,49.5549997168779));
#1671=CARTESIAN_POINT('',(-51.0000003129244,3.44524614834109,124.12));
#1672=CARTESIAN_POINT('Origin',(-111.000000312924,21.,124.12));
#1673=CARTESIAN_POINT('',(-111.000000312924,-49.5190157642634,124.12));
#1674=CARTESIAN_POINT('',(-111.000000312924,-49.5190157642634,124.12));
#1675=CARTESIAN_POINT('',(-111.000000312924,3.44524614834109,124.12));
#1676=CARTESIAN_POINT('Origin',(-111.000000312924,-49.5190157642634,73.55));
#1677=CARTESIAN_POINT('',(-48.0000003129243,-49.5190157642635,73.55));
#1678=CARTESIAN_POINT('',(-48.0000003129244,-49.5190157642634,100.030001017004));
#1679=CARTESIAN_POINT('',(-111.000000312924,-49.5190157642635,73.55));
#1680=CARTESIAN_POINT('',(-111.000000312924,-49.5190157642635,73.55));
#1681=CARTESIAN_POINT('',(-111.000000312924,-49.5190157642634,49.5549997168779));
#1682=CARTESIAN_POINT('Origin',(-111.000000312924,-49.2190157642634,73.55));
#1683=CARTESIAN_POINT('',(-111.000000312924,-31.6642617337906,73.55));
#1684=CARTESIAN_POINT('',(-48.0000003129243,-50.1190157642636,73.55));
#1685=CARTESIAN_POINT('Origin',(-48.0000003129244,-14.1095077033178,109.060000678003));
#1686=CARTESIAN_POINT('',(-48.0000003129243,-52.2190157642634,116.590000339001));
#1687=CARTESIAN_POINT('Origin',(-111.000000312924,20.9999999999999,73.55));
#1688=CARTESIAN_POINT('',(-111.000000312924,20.9999999999999,73.55));
#1689=CARTESIAN_POINT('',(-111.000000312924,20.9999999999999,73.55));
#1690=CARTESIAN_POINT('',(-111.000000312924,20.9999999999999,49.5549997168779));
#1691=CARTESIAN_POINT('Origin',(-111.000000312924,21.2999999999999,73.55));
#1692=CARTESIAN_POINT('',(-111.000000312924,3.59524614834106,73.55));
#1693=CARTESIAN_POINT('Origin',(-116.000000312924,-29.4095072748909,104.232131922912));
#1694=CARTESIAN_POINT('',(-111.000000312924,-19.4095683565791,104.19718009846));
#1695=CARTESIAN_POINT('',(-116.000000312924,-19.4095683565791,104.19718009846));
#1696=CARTESIAN_POINT('',(-111.000000312924,-39.4095072748909,104.232131922912));
#1697=CARTESIAN_POINT('Origin',(-111.000000312924,-29.4095072748909,104.232131922912));
#1698=CARTESIAN_POINT('',(-116.000000312924,-39.4095072748909,104.232131922912));
#1699=CARTESIAN_POINT('Origin',(-116.000000312924,-39.4095072748909,86.1499999999999));
#1700=CARTESIAN_POINT('',(-111.000000312924,-39.4095072748909,86.1499999999999));
#1701=CARTESIAN_POINT('',(-111.000000312924,-39.4095072748909,64.8960656783338));
#1702=CARTESIAN_POINT('',(-116.000000312924,-39.4095072748909,86.1499999999999));
#1703=CARTESIAN_POINT('Origin',(-116.000000312924,-39.3999985908625,86.1500000000029));
#1704=CARTESIAN_POINT('',(-111.000000312924,-39.3999985908625,86.1500000000029));
#1705=CARTESIAN_POINT('',(-111.000000312924,-26.7595074985209,86.1500000039319));
#1706=CARTESIAN_POINT('',(-116.000000312924,-39.3999985908625,86.1500000000029));
#1707=CARTESIAN_POINT('Origin',(-116.000000312924,-39.4095072748909,85.85));
#1708=CARTESIAN_POINT('',(-111.000000312924,-39.4095072748909,85.8499999999999));
#1709=CARTESIAN_POINT('',(-111.000000312924,-40.3465627148593,56.2858004587249));
#1710=CARTESIAN_POINT('',(-116.000000312924,-39.4095072748909,85.85));
#1711=CARTESIAN_POINT('Origin',(-116.000000312924,-39.4095072748909,73.55));
#1712=CARTESIAN_POINT('',(-111.000000312924,-39.4095072748909,73.55));
#1713=CARTESIAN_POINT('',(-111.000000312924,-39.4095072748909,55.7049997168779));
#1714=CARTESIAN_POINT('',(-116.000000312924,-39.4095072748909,73.55));
#1715=CARTESIAN_POINT('Origin',(-116.000000312924,-39.1095072748909,73.55));
#1716=CARTESIAN_POINT('',(-111.000000312924,-39.1095072748909,73.55));
#1717=CARTESIAN_POINT('',(-111.000000312924,-26.7595074891045,73.55));
#1718=CARTESIAN_POINT('',(-116.000000312924,-39.1095072748909,73.55));
#1719=CARTESIAN_POINT('Origin',(-116.000000312924,-39.1095072748909,73.35));
#1720=CARTESIAN_POINT('',(-111.000000312924,-39.1095072748909,73.35));
#1721=CARTESIAN_POINT('',(-111.000000312924,-39.1095072748909,49.5549997168779));
#1722=CARTESIAN_POINT('',(-116.000000312924,-39.1095072748909,73.35));
#1723=CARTESIAN_POINT('Origin',(-116.000000312924,-39.4095072748909,73.35));
#1724=CARTESIAN_POINT('',(-111.000000312924,-39.4095072748909,73.35));
#1725=CARTESIAN_POINT('',(-111.000000312924,-26.6095076801358,73.35));
#1726=CARTESIAN_POINT('',(-116.000000312924,-39.4095072748909,73.35));
#1727=CARTESIAN_POINT('Origin',(-116.000000312924,-39.4095072748909,40.55));
#1728=CARTESIAN_POINT('',(-111.000000312924,-39.4095072748909,40.55));
#1729=CARTESIAN_POINT('',(-111.000000312924,-39.4095072748909,49.4549997168779));
#1730=CARTESIAN_POINT('',(-116.000000312924,-39.4095072748909,40.55));
#1731=CARTESIAN_POINT('Origin',(-116.000000312924,11.1904916670896,40.55));
#1732=CARTESIAN_POINT('',(-111.000000312924,11.1904916670896,40.55));
#1733=CARTESIAN_POINT('',(-111.000000312924,-26.7595074891045,40.55));
#1734=CARTESIAN_POINT('',(-116.000000312924,11.1904916670896,40.55));
#1735=CARTESIAN_POINT('Origin',(-116.000000312924,11.1904916670896,75.55));
#1736=CARTESIAN_POINT('',(-111.000000312924,11.1904916670896,75.55));
#1737=CARTESIAN_POINT('',(-111.000000312924,11.1904916670896,33.0549997168779));
#1738=CARTESIAN_POINT('',(-116.000000312924,11.1904916670896,75.55));
#1739=CARTESIAN_POINT('Origin',(-116.000000312924,13.8904916670896,75.55));
#1740=CARTESIAN_POINT('',(-111.000000312924,13.8904916670896,75.55));
#1741=CARTESIAN_POINT('',(-111.000000312924,-1.45950801811422,75.55));
#1742=CARTESIAN_POINT('',(-116.000000312924,13.8904916670896,75.55));
#1743=CARTESIAN_POINT('Origin',(-116.000000312924,13.8904916670896,80.85));
#1744=CARTESIAN_POINT('',(-111.000000312924,13.8904916670896,86.1499999999999));
#1745=CARTESIAN_POINT('Origin',(-111.000000312924,13.8904916670896,80.85));
#1746=CARTESIAN_POINT('',(-116.000000312924,13.8904916670896,86.1499999999999));
#1747=CARTESIAN_POINT('Origin',(-116.000000312924,-19.4726469289388,86.1500000061968));
#1748=CARTESIAN_POINT('',(-111.000000312924,-19.4726469289388,86.1499999999999));
#1749=CARTESIAN_POINT('',(-111.000000312924,-0.109508027530638,86.1500000122153));
#1750=CARTESIAN_POINT('',(-116.000000312924,-19.4726469289388,86.1499999999999));
#1751=CARTESIAN_POINT('Origin',(-116.000000312924,-19.4095683565791,104.19718009846));
#1752=CARTESIAN_POINT('',(-111.000000312924,-19.5785000764723,55.8647423274867));
#1753=CARTESIAN_POINT('Origin',(-116.000000312924,-46.3000006854536,-43.7));
#1754=CARTESIAN_POINT('',(-111.000000312924,-0.726649146541823,-44.3172462777559));
#1755=CARTESIAN_POINT('Origin',(-116.000000312924,-52.2190157642634,127.12));
#1756=CARTESIAN_POINT('Origin',(-111.000000312924,-14.1095077033178,25.5599994337559));
#1757=CARTESIAN_POINT('',(0.,0.,0.));
#1758=UNCERTAINTY_MEASURE_WITH_UNIT(LENGTH_MEASURE(0.01),#1764,
'DISTANCE_ACCURACY_VALUE',
'Maximum model space distance between geometric entities at asserted c
onnectivities');
#1759=UNCERTAINTY_MEASURE_WITH_UNIT(LENGTH_MEASURE(0.01),#1764,
'DISTANCE_ACCURACY_VALUE',
'Maximum model space distance between geometric entities at asserted c
onnectivities');
#1760=UNCERTAINTY_MEASURE_WITH_UNIT(LENGTH_MEASURE(0.01),#1764,
'DISTANCE_ACCURACY_VALUE',
'Maximum model space distance between geometric entities at asserted c
onnectivities');
#1761=(
GEOMETRIC_REPRESENTATION_CONTEXT(3)
GLOBAL_UNCERTAINTY_ASSIGNED_CONTEXT((#1758))
GLOBAL_UNIT_ASSIGNED_CONTEXT((#1764,#1766,#1767))
REPRESENTATION_CONTEXT('','3D')
);
#1762=(
GEOMETRIC_REPRESENTATION_CONTEXT(3)
GLOBAL_UNCERTAINTY_ASSIGNED_CONTEXT((#1759))
GLOBAL_UNIT_ASSIGNED_CONTEXT((#1764,#1766,#1767))
REPRESENTATION_CONTEXT('','3D')
);
#1763=(
GEOMETRIC_REPRESENTATION_CONTEXT(3)
GLOBAL_UNCERTAINTY_ASSIGNED_CONTEXT((#1760))
GLOBAL_UNIT_ASSIGNED_CONTEXT((#1764,#1766,#1767))
REPRESENTATION_CONTEXT('','3D')
);
#1764=(
LENGTH_UNIT()
NAMED_UNIT(*)
SI_UNIT(.MILLI.,.METRE.)
);
#1765=(
LENGTH_UNIT()
NAMED_UNIT(*)
SI_UNIT($,.METRE.)
);
#1766=(
NAMED_UNIT(*)
PLANE_ANGLE_UNIT()
SI_UNIT($,.RADIAN.)
);
#1767=(
NAMED_UNIT(*)
SI_UNIT($,.STERADIAN.)
SOLID_ANGLE_UNIT()
);
#1768=SHAPE_DEFINITION_REPRESENTATION(#1770,#1773);
#1769=SHAPE_DEFINITION_REPRESENTATION(#1771,#1774);
#1770=PRODUCT_DEFINITION_SHAPE('',$,#1776);
#1771=PRODUCT_DEFINITION_SHAPE('',$,#1777);
#1772=PRODUCT_DEFINITION_SHAPE($,$,#14);
#1773=SHAPE_REPRESENTATION('',(#1098,#1171),#1761);
#1774=SHAPE_REPRESENTATION('',(#1099),#1762);
#1775=PRODUCT_DEFINITION_CONTEXT('part definition',#1783,'design');
#1776=PRODUCT_DEFINITION('ProtoFinalShellFix','ProtoFinalShellFix v2',#1778,
#1775);
#1777=PRODUCT_DEFINITION('shell','shell',#1779,#1775);
#1778=PRODUCT_DEFINITION_FORMATION('',$,#1785);
#1779=PRODUCT_DEFINITION_FORMATION('',$,#1786);
#1780=PRODUCT_RELATED_PRODUCT_CATEGORY('ProtoFinalShellFix v2',
'ProtoFinalShellFix v2',(#1785));
#1781=PRODUCT_RELATED_PRODUCT_CATEGORY('shell','shell',(#1786));
#1782=APPLICATION_PROTOCOL_DEFINITION('international standard',
'automotive_design',2009,#1783);
#1783=APPLICATION_CONTEXT(
'Core Data for Automotive Mechanical Design Process');
#1784=PRODUCT_CONTEXT('part definition',#1783,'mechanical');
#1785=PRODUCT('ProtoFinalShellFix','ProtoFinalShellFix v2',$,(#1784));
#1786=PRODUCT('shell','shell',$,(#1784));
#1787=PRESENTATION_STYLE_ASSIGNMENT((#1792));
#1788=PRESENTATION_STYLE_ASSIGNMENT((#1793));
#1789=PRESENTATION_STYLE_ASSIGNMENT((#1794));
#1790=PRESENTATION_STYLE_ASSIGNMENT((#1795));
#1791=PRESENTATION_STYLE_ASSIGNMENT((#1796));
#1792=SURFACE_STYLE_USAGE(.BOTH.,#1797);
#1793=SURFACE_STYLE_USAGE(.BOTH.,#1798);
#1794=SURFACE_STYLE_USAGE(.BOTH.,#1799);
#1795=SURFACE_STYLE_USAGE(.BOTH.,#1800);
#1796=SURFACE_STYLE_USAGE(.BOTH.,#1801);
#1797=SURFACE_SIDE_STYLE('',(#1802));
#1798=SURFACE_SIDE_STYLE('',(#1803));
#1799=SURFACE_SIDE_STYLE('',(#1804));
#1800=SURFACE_SIDE_STYLE('',(#1805));
#1801=SURFACE_SIDE_STYLE('',(#1806));
#1802=SURFACE_STYLE_FILL_AREA(#1807);
#1803=SURFACE_STYLE_FILL_AREA(#1808);
#1804=SURFACE_STYLE_FILL_AREA(#1809);
#1805=SURFACE_STYLE_FILL_AREA(#1810);
#1806=SURFACE_STYLE_FILL_AREA(#1811);
#1807=FILL_AREA_STYLE('ABS (White)',(#1812));
#1808=FILL_AREA_STYLE('Steel - Satin',(#1813));
#1809=FILL_AREA_STYLE('Plastic - Translucent Glossy (White)',(#1814));
#1810=FILL_AREA_STYLE('Plastic - Matte (Black)',(#1815));
#1811=FILL_AREA_STYLE('Coating - Black Oxide',(#1816));
#1812=FILL_AREA_STYLE_COLOUR('ABS (White)',#1817);
#1813=FILL_AREA_STYLE_COLOUR('Steel - Satin',#1818);
#1814=FILL_AREA_STYLE_COLOUR('Plastic - Translucent Glossy (White)',#1819);
#1815=FILL_AREA_STYLE_COLOUR('Plastic - Matte (Black)',#1820);
#1816=FILL_AREA_STYLE_COLOUR('Coating - Black Oxide',#1821);
#1817=COLOUR_RGB('ABS (White)',0.964705882352941,0.964705882352941,0.952941176470588);
#1818=COLOUR_RGB('Steel - Satin',0.627450980392157,0.627450980392157,0.627450980392157);
#1819=COLOUR_RGB('Plastic - Translucent Glossy (White)',0.964705882352941,
0.964705882352941,0.952941176470588);
#1820=COLOUR_RGB('Plastic - Matte (Black)',0.0980392156862745,0.0980392156862745,
0.0980392156862745);
#1821=COLOUR_RGB('Coating - Black Oxide',0.450980392156863,0.450980392156863,
0.450980392156863);
ENDSEC;
END-ISO-10303-21;
